<svg width="24" height="24" viewBox="0 0 24 24" fill="none" xmlns="http://www.w3.org/2000/svg">
    <path d="M8 3.99993C8 1.78993 6.21 -7.21682e-05 4 -7.21682e-05C1.79 -7.21682e-05 0 1.78993 0 3.99993V6.99993C0 9.20993 1.79 10.9999 4 10.9999C6.21 10.9999 8 9.20993 8 6.99993V3.99993ZM6 6.99993C6 8.09993 5.1 8.99993 4 8.99993C2.9 8.99993 2 8.09993 2 6.99993V3.99993C2 2.89993 2.9 1.99993 4 1.99993C5.1 1.99993 6 2.89993 6 3.99993V6.99993ZM12 13.9999C12 14.5499 11.55 14.9999 11 14.9999C9.9 14.9999 9 15.8999 9 16.9999V19.9999C9 20.5699 9.24 21.1099 9.67 21.4899C10.08 21.8599 10.12 22.4899 9.75 22.8999C9.55 23.1199 9.28 23.2299 9 23.2299C8.76 23.2299 8.52 23.1499 8.33 22.9799C7.48 22.2199 7 21.1399 7 19.9999V16.9999C7 14.7899 8.79 12.9999 11 12.9999C11.55 12.9999 12 13.4499 12 13.9999ZM9.85 4.14993C9.46 3.75993 9.46 3.12993 9.85 2.73993L12.29 0.289928C12.58 -7.21812e-05 13.01 -0.0800722 13.38 0.0699278C13.75 0.219928 14 0.589928 14 0.989928V8.99993C14 9.54993 13.55 9.99993 13 9.99993C12.45 9.99993 12 9.54993 12 8.99993V3.40993L11.26 4.14993C10.87 4.53993 10.24 4.53993 9.85 4.14993ZM5 13.9999V22.9999C5 23.5499 4.55 23.9999 4 23.9999C3.45 23.9999 3 23.5499 3 22.9999V16.4099L2.26 17.1499C1.87 17.5399 1.24 17.5399 0.85 17.1499C0.46 16.7599 0.46 16.1299 0.85 15.7399L3.29 13.2999C3.58 13.0099 4.01 12.9299 4.38 13.0799C4.75 13.2299 5 13.5999 5 13.9999ZM22 14.5599V12.9999C22 10.7899 20.21 8.99993 18 8.99993C15.79 8.99993 14 10.7899 14 12.9999V14.5599C12.81 15.2499 12 16.5299 12 17.9999V19.9999C12 22.2099 13.79 23.9999 16 23.9999H20C22.21 23.9999 24 22.2099 24 19.9999V17.9999C24 16.5299 23.19 15.2499 22 14.5599ZM16 12.9999C16 11.8999 16.9 10.9999 18 10.9999C19.1 10.9999 20 11.8999 20 12.9999V13.9999H16V12.9999ZM22 19.9999C22 21.0999 21.1 21.9999 20 21.9999H16C14.9 21.9999 14 21.0999 14 19.9999V17.9999C14 16.8999 14.9 15.9999 16 15.9999H20C21.1 15.9999 22 16.8999 22 17.9999V19.9999ZM19.5 18.9999C19.5 19.8299 18.83 20.4999 18 20.4999C17.17 20.4999 16.5 19.8299 16.5 18.9999C16.5 18.1699 17.17 17.4999 18 17.4999C18.83 17.4999 19.5 18.1699 19.5 18.9999Z" fill="white"/>
</svg>
