<svg width="24" height="23" viewBox="0 0 24 23" fill="none" xmlns="http://www.w3.org/2000/svg">
    <path d="M23.715 1.28491C23.5251 1.09573 23.268 0.989502 23 0.989502C22.732 0.989502 22.4749 1.09573 22.285 1.28491L17.521 6.04891L17.201 5.73591C16.3573 4.91186 15.2499 4.41199 14.0738 4.32437C12.8977 4.23674 11.7285 4.56698 10.772 5.25691C9.39154 6.2979 7.85708 7.11709 6.224 7.68491L4.15 8.29291C3.47605 8.49074 2.85093 8.82737 2.31482 9.28117C1.7787 9.73496 1.34344 10.2959 1.037 10.9279C0.735606 11.5514 0.567738 12.2309 0.544147 12.9229C0.520555 13.615 0.64176 14.3044 0.9 14.9469C1.87878 17.3497 3.55671 19.403 5.71632 20.8409C7.87593 22.2787 10.4176 23.0347 13.012 23.0109H13.936C14.1427 23.0108 14.3445 22.9472 14.514 22.8289C16.2742 21.6799 17.7786 20.1803 18.9331 18.4238C20.0876 16.6672 20.8675 14.6915 21.224 12.6199C21.348 11.8278 21.2808 11.0175 21.0281 10.2567C20.7753 9.49578 20.3443 8.80637 19.771 8.24591L18.971 7.46191L23.718 2.71491C23.9068 2.52464 24.0125 2.26731 24.0119 1.99929C24.0113 1.73126 23.9046 1.47438 23.715 1.28491ZM13.608 20.9849H13.008C11.5304 20.9869 10.0668 20.6992 8.7 20.1379L8.711 20.1319C10.4599 19.2544 11.9571 17.9468 13.062 16.3319L13.58 15.5709C13.7309 15.3494 13.7877 15.0771 13.7378 14.8138C13.6879 14.5505 13.5355 14.3178 13.314 14.1669C13.0925 14.016 12.8202 13.9592 12.5569 14.0091C12.2936 14.059 12.0609 14.2114 11.91 14.4329L11.392 15.1939C10.4792 16.5255 9.24326 17.6035 7.8 18.3269L6.549 18.9569C5.54812 18.2534 4.67459 17.3842 3.966 16.3869C5.60498 15.8355 7.1003 14.9254 8.343 13.7229C8.53475 13.5354 8.64416 13.2794 8.64716 13.0112C8.65016 12.743 8.54651 12.4847 8.359 12.2929C8.17149 12.1012 7.91549 11.9917 7.64731 11.9887C7.37914 11.9857 7.12075 12.0894 6.929 12.2769C5.80989 13.3613 4.44403 14.1574 2.949 14.5969C2.888 14.4619 2.822 14.3299 2.767 14.1909C2.61212 13.8106 2.53962 13.4017 2.55427 12.9913C2.56893 12.5809 2.6704 12.1782 2.852 11.8099C3.03585 11.4317 3.29659 11.096 3.61755 10.8243C3.93851 10.5526 4.31263 10.3508 4.716 10.2319L6.789 9.62391C7.99195 9.23746 9.14264 8.7041 10.215 8.03591L18.13 15.7479C17.0784 17.8414 15.5248 19.6419 13.608 20.9889V20.9849ZM19.228 12.3019C19.1516 12.7698 19.0484 13.2328 18.919 13.6889L11.948 6.89991C12.4594 6.53234 13.0732 6.33439 13.703 6.33391C14.4821 6.33292 15.2304 6.63778 15.787 7.18291L18.356 9.69191C18.699 10.0267 18.957 10.4386 19.1087 10.8933C19.2604 11.3479 19.3013 11.8322 19.228 12.3059V12.3019Z" fill="white"/>
</svg>
