<svg width="24" height="24" viewBox="0 0 24 24" fill="none" xmlns="http://www.w3.org/2000/svg">
    <g clip-path="url(#clip0_2044_5146)">
        <path d="M22.536 4.12202L19.878 1.46402C19.4149 0.998362 18.8639 0.629199 18.2572 0.377902C17.6504 0.126605 16.9998 -0.00183456 16.343 1.97963e-05H5C3.67441 0.00160765 2.40356 0.528902 1.46622 1.46624C0.528882 2.40358 0.00158786 3.67443 0 5.00002L0 19C0.00158786 20.3256 0.528882 21.5965 1.46622 22.5338C2.40356 23.4711 3.67441 23.9984 5 24H19C20.3256 23.9984 21.5964 23.4711 22.5338 22.5338C23.4711 21.5965 23.9984 20.3256 24 19V7.65702C24.0019 7.00026 23.8734 6.34965 23.6221 5.74286C23.3708 5.13608 23.0017 4.58517 22.536 4.12202ZM17 2.08002V3.00002C17 3.79567 16.6839 4.55873 16.1213 5.12134C15.5587 5.68395 14.7956 6.00002 14 6.00002H10C9.20435 6.00002 8.44129 5.68395 7.87868 5.12134C7.31607 4.55873 7 3.79567 7 3.00002V2.00002H16.343C16.5643 2.00198 16.7847 2.02882 17 2.08002ZM22 19C22 19.7957 21.6839 20.5587 21.1213 21.1213C20.5587 21.6839 19.7956 22 19 22H5C4.20435 22 3.44129 21.6839 2.87868 21.1213C2.31607 20.5587 2 19.7957 2 19V5.00002C2 4.20437 2.31607 3.44131 2.87868 2.8787C3.44129 2.31609 4.20435 2.00002 5 2.00002V3.00002C5.00159 4.32561 5.52888 5.59646 6.46622 6.5338C7.40356 7.47114 8.67441 7.99843 10 8.00002H14C15.2575 7.99612 16.4672 7.51768 17.3871 6.66038C18.3071 5.80308 18.8695 4.63011 18.962 3.37602L21.122 5.53602C21.6824 6.09989 21.9979 6.86201 22 7.65702V19Z" fill="white"/>
    </g>
    <defs>
        <clipPath id="clip0_2044_5146">
            <rect width="24" height="24" fill="white"/>
        </clipPath>
    </defs>
</svg>
