<svg width="24" height="24" viewBox="0 0 24 24" fill="none" xmlns="http://www.w3.org/2000/svg">
    <g clip-path="url(#clip0_2044_1530)">
        <path d="M5 4H5.18C5.59 5.16 6.69 6 8 6H10C11.3 6 12.4 5.16 12.82 4H13C14.37 4 15.56 4.92 15.91 6.25C16.05 6.79 16.59 7.11 17.13 6.97C17.66 6.83 17.99 6.29 17.85 5.75C17.28 3.54 15.29 2 13.01 2H12.84C12.43 0.84 11.32 0 10.01 0H8.01C6.71 0 5.59 0.84 5.18 2H5.01C2.24 2 0 4.24 0 7V19C0 21.76 2.24 24 5 24H8C8.55 24 9 23.55 9 23C9 22.45 8.55 22 8 22H5C3.35 22 2 20.65 2 19V7C2 5.35 3.35 4 5 4ZM8 2H10C10.55 2 11 2.45 11 3C11 3.55 10.55 4 10 4H8C7.45 4 7 3.55 7 3C7 2.45 7.45 2 8 2ZM20 9H15C12.79 9 11 10.79 11 13V20C11 22.21 12.79 24 15 24H20C22.21 24 24 22.21 24 20V13C24 10.79 22.21 9 20 9ZM22 20C22 21.1 21.1 22 20 22H15C13.9 22 13 21.1 13 20V13C13 11.9 13.9 11 15 11H20C21.1 11 22 11.9 22 13V20ZM20 14C20 14.55 19.55 15 19 15H16C15.45 15 15 14.55 15 14C15 13.45 15.45 13 16 13H19C19.55 13 20 13.45 20 14ZM20 18C20 18.55 19.55 19 19 19H16C15.45 19 15 18.55 15 18C15 17.45 15.45 17 16 17H19C19.55 17 20 17.45 20 18Z" fill="white"/>
    </g>
    <defs>
        <clipPath id="clip0_2044_1530">
            <rect width="24" height="24" fill="white"/>
        </clipPath>
    </defs>
</svg>
