<svg width="24" height="24" viewBox="0 0 24 24" fill="none" xmlns="http://www.w3.org/2000/svg">
    <path d="M24 12C24 12.552 23.552 13 23 13H1C0.448 13 0 12.552 0 12C0 11.448 0.448 11 1 11H23C23.552 11 24 11.448 24 12ZM7 22H5C3.346 22 2 20.654 2 19V17C2 16.448 1.552 16 1 16C0.448 16 0 16.448 0 17V19C0 21.757 2.243 24 5 24H7C7.552 24 8 23.552 8 23C8 22.448 7.552 22 7 22ZM23 16C22.448 16 22 16.448 22 17V19C22 20.654 20.654 22 19 22H17C16.448 22 16 22.448 16 23C16 23.552 16.448 24 17 24H19C21.757 24 24 21.757 24 19V17C24 16.448 23.552 16 23 16ZM19 0H17C16.448 0 16 0.448 16 1C16 1.552 16.448 2 17 2H19C20.654 2 22 3.346 22 5V7C22 7.552 22.448 8 23 8C23.552 8 24 7.552 24 7V5C24 2.243 21.757 0 19 0ZM1 8C1.552 8 2 7.552 2 7V5C2 3.346 3.346 2 5 2H7C7.552 2 8 1.552 8 1C8 0.448 7.552 0 7 0H5C2.243 0 0 2.243 0 5V7C0 7.552 0.448 8 1 8Z" fill="white"/>
</svg>
