<svg width="24" height="23" viewBox="0 0 24 23" fill="none" xmlns="http://www.w3.org/2000/svg">
    <path d="M16.9 13.723C17.0875 13.9105 17.3418 14.0158 17.607 14.0158C17.8722 14.0158 18.1265 13.9105 18.314 13.723L23.263 8.773C23.4952 8.54084 23.6794 8.26522 23.8051 7.96186C23.9308 7.6585 23.9955 7.33336 23.9955 7.005C23.9955 6.67664 23.9308 6.3515 23.8051 6.04814C23.6794 5.74478 23.4952 5.46915 23.263 5.237L18.313 0.287999C18.1228 0.115572 17.8736 0.0228759 17.617 0.0291032C17.3604 0.0353305 17.116 0.140004 16.9344 0.321452C16.7529 0.5029 16.648 0.747225 16.6416 1.00384C16.6352 1.26046 16.7277 1.50971 16.9 1.7L21.2 6H5C3.67392 6 2.40215 6.52678 1.46447 7.46447C0.526784 8.40215 0 9.67392 0 11L0 18C0.00158786 19.3256 0.528882 20.5964 1.46622 21.5338C2.40356 22.4711 3.67441 22.9984 5 23H19C19.2652 23 19.5196 22.8946 19.7071 22.7071C19.8946 22.5196 20 22.2652 20 22C20 21.7348 19.8946 21.4804 19.7071 21.2929C19.5196 21.1054 19.2652 21 19 21H5C4.20435 21 3.44129 20.6839 2.87868 20.1213C2.31607 19.5587 2 18.7956 2 18V11C2 10.2043 2.31607 9.44129 2.87868 8.87868C3.44129 8.31607 4.20435 8 5 8H21.212L16.9 12.309C16.7125 12.4965 16.6072 12.7508 16.6072 13.016C16.6072 13.2812 16.7125 13.5355 16.9 13.723Z" fill="white"/>
</svg>
