<svg width="24" height="24" viewBox="0 0 24 24" fill="none" xmlns="http://www.w3.org/2000/svg">
    <path d="M19.3329 14.667C18.5768 14.6676 17.8323 14.8522 17.1634 15.2048C16.4946 15.5574 15.9216 16.0675 15.4939 16.691L8.98493 13.752C9.44724 12.6356 9.44904 11.3817 8.98993 10.264L15.4899 7.31C16.1238 8.22676 17.0653 8.88597 18.1435 9.16805C19.2218 9.45013 20.3655 9.33641 21.3671 8.8475C22.3687 8.3586 23.1619 7.5269 23.6028 6.50327C24.0437 5.47964 24.1031 4.33187 23.7703 3.26818C23.4375 2.20448 22.7344 1.2953 21.7887 0.705558C20.8429 0.115817 19.7171 -0.115424 18.6155 0.0537794C17.5138 0.222983 16.5093 0.781424 15.7842 1.62781C15.059 2.47419 14.6612 3.55245 14.6629 4.667C14.6672 4.9308 14.6939 5.19376 14.7429 5.453L7.83293 8.593C7.16927 7.97122 6.33844 7.55684 5.44251 7.40076C4.54657 7.24469 3.62456 7.35372 2.78974 7.71446C1.95492 8.0752 1.24366 8.67194 0.743329 9.43137C0.243 10.1908 -0.0246019 11.0798 -0.0266001 11.9893C-0.0285982 12.8987 0.235094 13.7889 0.732081 14.5505C1.22907 15.3121 1.9377 15.912 2.77093 16.2764C3.60416 16.6408 4.52568 16.7539 5.42229 16.6017C6.3189 16.4496 7.15155 16.0389 7.81793 15.42L14.7459 18.548C14.6978 18.807 14.6714 19.0696 14.6669 19.333C14.6667 20.2561 14.9403 21.1586 15.453 21.9262C15.9658 22.6939 16.6947 23.2922 17.5475 23.6456C18.4003 23.9989 19.3388 24.0914 20.2442 23.9114C21.1496 23.7313 21.9813 23.2868 22.634 22.6341C23.2868 21.9813 23.7313 21.1496 23.9113 20.2442C24.0914 19.3388 23.9988 18.4004 23.6455 17.5476C23.2921 16.6947 22.6938 15.9659 21.9262 15.4531C21.1585 14.9404 20.2561 14.6668 19.3329 14.667ZM19.3329 2C19.8605 1.99981 20.3762 2.15605 20.8149 2.44899C21.2536 2.74192 21.5956 3.15838 21.7976 3.64569C21.9996 4.13301 22.0526 4.66928 21.9498 5.1867C21.847 5.70411 21.5931 6.17942 21.2201 6.5525C20.8472 6.92559 20.372 7.1797 19.8546 7.28268C19.3372 7.38567 18.8009 7.33291 18.3135 7.13109C17.8262 6.92926 17.4096 6.58742 17.1165 6.14881C16.8234 5.71021 16.6669 5.19453 16.6669 4.667C16.6675 3.96001 16.9485 3.2821 17.4483 2.78209C17.9481 2.28207 18.6259 2.0008 19.3329 2ZM4.66693 14.667C4.13941 14.6672 3.62367 14.511 3.18496 14.218C2.74624 13.9251 2.40425 13.5086 2.20223 13.0213C2.00022 12.534 1.94726 11.9977 2.05006 11.4803C2.15285 10.9629 2.40678 10.4876 2.77973 10.1145C3.15267 9.74142 3.62788 9.48731 4.14526 9.38432C4.66263 9.28133 5.19893 9.33409 5.68632 9.53592C6.17371 9.73775 6.5903 10.0796 6.88339 10.5182C7.17649 10.9568 7.33293 11.4725 7.33293 12C7.33214 12.7069 7.05104 13.3847 6.55126 13.8846C6.05149 14.3846 5.37385 14.6659 4.66693 14.667ZM19.3329 22C18.8055 22 18.2898 21.8436 17.8512 21.5505C17.4126 21.2575 17.0708 20.841 16.8689 20.3536C16.6671 19.8663 16.6143 19.33 16.7172 18.8127C16.8201 18.2954 17.0741 17.8201 17.4471 17.4471C17.8201 17.0742 18.2953 16.8202 18.8126 16.7172C19.33 16.6143 19.8662 16.6672 20.3536 16.869C20.8409 17.0709 21.2574 17.4127 21.5505 17.8513C21.8435 18.2899 21.9999 18.8055 21.9999 19.333C21.9994 20.0402 21.7183 20.7182 21.2182 21.2183C20.7182 21.7183 20.0401 21.9995 19.3329 22Z" fill="white"/>
</svg>
