<svg width="22" height="22" viewBox="0 0 22 22" fill="none" xmlns="http://www.w3.org/2000/svg">
    <path d="M10 2.01498V21C10 21.552 9.552 22 9 22C8.448 22 8 21.552 8 21V2.01498C5.062 2.08498 3.14 2.44498 2.279 2.64998C2.16 3.22298 2 4.15098 2 5.00098C2 5.55298 1.552 6.00098 1 6.00098C0.448 6.00098 0 5.55298 0 5.00098C0 3.38898 0.454 1.65798 0.473 1.58498C0.559 1.25898 0.804 0.998976 1.123 0.891976C1.232 0.855976 3.856 0.000976562 9 0.000976562C14.144 0.000976562 16.768 0.855976 16.877 0.891976C17.196 0.997976 17.441 1.25898 17.527 1.58498C17.546 1.65798 18 3.38898 18 5.00098C18 5.55298 17.552 6.00098 17 6.00098C16.448 6.00098 16 5.55298 16 5.00098C16 4.15098 15.84 3.22298 15.721 2.64998C14.862 2.44598 12.939 2.08498 10 2.01498ZM21.76 12.221C21.689 11.87 21.435 11.585 21.096 11.471C21.038 11.452 19.652 11 17 11C14.348 11 12.961 11.452 12.904 11.471C12.565 11.584 12.311 11.87 12.24 12.221C12.2 12.418 12 13.429 12 14C12 14.552 12.448 15 13 15C13.552 15 14 14.552 14 14C14 13.842 14.039 13.543 14.087 13.24C14.498 13.162 15.139 13.069 16 13.025V20.888C16 21.44 16.448 21.888 17 21.888C17.552 21.888 18 21.44 18 20.888V13.025C18.861 13.069 19.502 13.161 19.913 13.24C19.962 13.543 20 13.841 20 14C20 14.552 20.448 15 21 15C21.552 15 22 14.552 22 14C22 13.428 21.8 12.417 21.76 12.221Z" fill="white"/>
</svg>
