<svg width="23" height="24" viewBox="0 0 23 24" fill="none" xmlns="http://www.w3.org/2000/svg">
    <path d="M7.80005 22H5.80005C4.14605 22 2.80005 20.654 2.80005 19V6H14.8V7C14.8 7.553 15.247 8 15.8 8C16.353 8 16.8 7.553 16.8 7V6H17.8C18.353 6 18.8 5.553 18.8 5C18.8 4.447 18.353 4 17.8 4H14.699C14.234 1.721 12.214 0 9.80005 0H7.80005C5.38605 0 3.36505 1.721 2.90105 4H-0.199951C-0.752951 4 -1.19995 4.447 -1.19995 5C-1.19995 5.553 -0.752951 6 -0.199951 6H0.800049V19C0.800049 21.757 3.04305 24 5.80005 24H7.80005C8.35305 24 8.80005 23.553 8.80005 23C8.80005 22.447 8.35305 22 7.80005 22ZM7.80005 2H9.80005C11.104 2 12.215 2.836 12.628 4H4.97205C5.38505 2.836 6.49605 2 7.80005 2ZM15.8 10C11.941 10 8.80005 13.141 8.80005 17C8.80005 20.859 11.941 24 15.8 24C19.659 24 22.8 20.859 22.8 17C22.8 13.141 19.659 10 15.8 10ZM15.8 22C13.043 22 10.8 19.757 10.8 17C10.8 14.243 13.043 12 15.8 12C18.557 12 20.8 14.243 20.8 17C20.8 19.757 18.557 22 15.8 22ZM17.507 17.293C17.8981 17.684 17.8981 18.316 17.507 18.707C17.312 18.902 17.056 19 16.8 19C16.544 19 16.288 18.902 16.093 18.707L15.093 17.707C14.905 17.519 14.8 17.266 14.8 17V15C14.8 14.447 15.247 14 15.8 14C16.353 14 16.8 14.447 16.8 15V16.586L17.507 17.293Z" fill="white"/>
</svg>
