<svg width="24" height="23" viewBox="0 0 24 23" fill="none" xmlns="http://www.w3.org/2000/svg">
    <path d="M22.535 7.45997C22.0715 6.99499 21.5205 6.62653 20.9137 6.37592C20.3069 6.12532 19.6565 5.99753 19 5.99997H2.79997L7.09997 1.69997C7.28721 1.51193 7.39208 1.25721 7.39152 0.991845C7.39096 0.726481 7.285 0.472209 7.09697 0.284967C6.90893 0.0977237 6.65421 -0.00715215 6.38884 -0.00658954C6.12348 -0.00602694 5.86921 0.0999281 5.68197 0.287967L0.731966 5.23697C0.263288 5.70579 0 6.34156 0 7.00447C0 7.66738 0.263288 8.30315 0.731966 8.77197L5.68197 13.723C5.77481 13.8161 5.88508 13.89 6.00649 13.9405C6.1279 13.991 6.25806 14.017 6.38955 14.0172C6.52104 14.0174 6.65128 13.9917 6.77283 13.9416C6.89438 13.8914 7.00486 13.8178 7.09797 13.725C7.19107 13.6321 7.26498 13.5218 7.31547 13.4004C7.36596 13.279 7.39204 13.1489 7.39223 13.0174C7.39242 12.8859 7.3667 12.7557 7.31655 12.6341C7.26641 12.5126 7.19281 12.4021 7.09997 12.309L2.78797 7.99997H19C19.7956 7.99997 20.5587 8.31604 21.1213 8.87865C21.6839 9.44125 22 10.2043 22 11V18C22 18.7956 21.6839 19.5587 21.1213 20.1213C20.5587 20.6839 19.7956 21 19 21H4.99997C4.73475 21 4.4804 21.1053 4.29286 21.2929C4.10532 21.4804 3.99997 21.7347 3.99997 22C3.99997 22.2652 4.10532 22.5195 4.29286 22.7071C4.4804 22.8946 4.73475 23 4.99997 23H19C20.3256 22.9984 21.5964 22.4711 22.5337 21.5337C23.4711 20.5964 23.9984 19.3256 24 18V11C24.0022 10.3423 23.8738 9.69077 23.6224 9.0831C23.3709 8.47543 23.0013 7.92372 22.535 7.45997Z" fill="white"/>
</svg>
