<svg width="20" height="24" viewBox="0 0 20 24" fill="none" xmlns="http://www.w3.org/2000/svg">
    <path d="M14.9998 7.9999H4.99976V6.9999C4.99945 5.8913 5.36758 4.81403 6.04627 3.93747C6.72497 3.0609 7.67573 2.43475 8.74909 2.15745C9.82244 1.88016 10.9575 1.96744 11.9759 2.40558C12.9942 2.84372 13.8381 3.60787 14.3748 4.5779C14.4385 4.69274 14.5243 4.79389 14.6271 4.8756C14.73 4.9573 14.8479 5.01794 14.9742 5.05406C15.1005 5.09018 15.2326 5.10108 15.3631 5.08612C15.4936 5.07117 15.6199 5.03065 15.7348 4.9669C15.8496 4.90314 15.9508 4.81739 16.0325 4.71454C16.1142 4.61168 16.1748 4.49375 16.2109 4.36746C16.247 4.24117 16.2579 4.10901 16.243 3.97851C16.228 3.84801 16.1875 3.72174 16.1238 3.6069C15.3721 2.24921 14.1905 1.17981 12.7648 0.566809C11.3391 -0.0461966 9.75012 -0.168054 8.24763 0.220391C6.74513 0.608837 5.41432 1.48556 4.46438 2.71275C3.51444 3.93993 2.99924 5.448 2.99976 6.9999V8.42389C2.10912 8.8126 1.35105 9.45242 0.818255 10.2651C0.285461 11.0778 0.00103423 12.0281 -0.000244141 12.9999V18.9999C0.00134372 20.3255 0.528638 21.5963 1.46598 22.5337C2.40331 23.471 3.67416 23.9983 4.99976 23.9999H14.9998C16.3254 23.9983 17.5962 23.471 18.5335 22.5337C19.4709 21.5963 19.9982 20.3255 19.9998 18.9999V12.9999C19.9982 11.6743 19.4709 10.4035 18.5335 9.46611C17.5962 8.52878 16.3254 8.00148 14.9998 7.9999ZM17.9998 18.9999C17.9998 19.7955 17.6837 20.5586 17.1211 21.1212C16.5585 21.6838 15.7954 21.9999 14.9998 21.9999H4.99976C4.20411 21.9999 3.44105 21.6838 2.87844 21.1212C2.31583 20.5586 1.99976 19.7955 1.99976 18.9999V12.9999C1.99976 12.2042 2.31583 11.4412 2.87844 10.8786C3.44105 10.316 4.20411 9.9999 4.99976 9.9999H14.9998C15.7954 9.9999 16.5585 10.316 17.1211 10.8786C17.6837 11.4412 17.9998 12.2042 17.9998 12.9999V18.9999Z" fill="white"/>
</svg>
