<svg width="13" height="22" viewBox="0 0 13 22" fill="none" xmlns="http://www.w3.org/2000/svg">
    <path d="M12.75 2.15544L12.75 19.8444C12.7499 20.1576 12.657 20.4636 12.4831 20.7239C12.3091 20.9842 12.0618 21.1871 11.7725 21.3069C11.4833 21.4267 11.165 21.4581 10.8579 21.397C10.5508 21.336 10.2687 21.1852 10.0472 20.9639L1.20275 12.1194C0.90592 11.8224 0.73917 11.4198 0.73917 10.9999C0.73917 10.5801 0.905921 10.1774 1.20275 9.88053L10.0473 1.03603C10.2687 0.814663 10.5508 0.663919 10.8579 0.602854C11.165 0.541789 11.4833 0.573144 11.7725 0.692955C12.0618 0.812766 12.3091 1.01565 12.4831 1.27597C12.657 1.53628 12.7499 1.84234 12.75 2.15544Z" fill="white"/>
</svg>
