<svg width="417" height="271" viewBox="0 0 417 271" fill="none" xmlns="http://www.w3.org/2000/svg">
    <mask id="mask0_240_12848" style="mask-type:luminance" maskUnits="userSpaceOnUse" x="0" y="0" width="417" height="271">
        <path d="M417 0H0V270.994H417V0Z" fill="white"/>
    </mask>
    <g mask="url(#mask0_240_12848)">
        <path d="M233.615 81.1839C232.179 79.1385 219.829 60.3175 211.66 47.8553C210.913 45.6789 210.041 42.4536 210.231 39.6281C210.552 34.836 210.664 34.187 209.563 29.703C208.461 25.2189 209.969 22.7147 210.303 21.397C210.638 20.0794 208.973 19.0108 207.098 20.6694C205.223 22.3214 204.725 25.4746 204.659 27.1659C204.593 28.8573 202.902 31.65 200.155 29.8865C197.409 28.1231 192.807 15.5757 191.548 13.2026C190.283 10.8295 188.218 11.6096 188.716 14.1728C189.214 16.736 193.187 26.6874 193.324 27.9002C193.462 29.1129 185.576 16.5787 184.238 14.6317C182.901 12.6847 181.518 13.5697 181.977 16.0346C182.429 18.506 189.076 28.8245 189.129 29.0605C187.877 28.2542 180.246 19.4763 178.653 20.158C177.06 20.8398 177.958 22.6688 179.597 24.4913C181.236 26.3072 186.749 33.066 186.749 33.066C186.749 33.066 178.371 27.9919 177.067 27.7166C175.762 27.4413 175.592 28.6606 177.224 30.7256C178.856 32.7906 185.32 35.3604 186.795 38.1465C188.27 40.9327 189.188 42.2831 192.295 44.8398C194.76 46.8655 198.294 51.1528 199.723 54.0045C199.919 54.5682 200.123 55.1451 200.332 55.7351C200.332 55.781 200.352 55.8335 200.359 55.8794C200.378 55.958 200.411 56.017 200.45 56.0695C205.033 68.9249 212.106 87.156 217.6 94.0918C226.45 105.276 248.614 117.462 248.614 117.462V92.289C248.614 92.289 235.785 84.265 233.622 81.1839H233.615Z" fill="#F79D79"/>
        <path d="M248.606 92.2893C248.606 92.2893 245.197 90.1587 241.598 87.6676C237.239 94.2756 235.593 102.228 236.393 109.957C243.054 114.408 248.606 117.463 248.606 117.463V92.2893Z" fill="#F4906E"/>
        <path d="M197.073 49.9793C197.073 49.9793 202.98 49.8678 205.923 46.2688C204.396 50.8511 199.892 51.6706 197.073 49.9793Z" fill="#ED8662"/>
        <path d="M187.332 36.0225C187.332 36.0225 191.199 30.2995 196.87 28.6081C194.962 28.3328 188.964 30.7322 187.332 36.0225Z" fill="#ED8662"/>
        <path d="M203.137 30.0505C203.137 30.0505 198.948 37.3337 200.58 43.437C196.765 37.7664 199.472 31.9188 203.137 30.0505Z" fill="#ED8662"/>
        <path d="M103.139 209.221C103.139 209.221 102.064 246.902 103.139 281.352C117.057 286.518 137.864 283.646 137.864 283.646L141.457 251.714L145.79 283.646L178.883 278.448C178.883 278.448 173.166 226.423 167.777 207.589C145.665 200.745 103.139 209.214 103.139 209.214V209.221Z" fill="#774828"/>
        <path d="M149.369 283.089C148.648 277.156 145.868 253.7 146.642 251.825C147.52 249.675 151.047 234.027 151.047 234.027C151.047 234.027 144.623 248.954 141.981 248.528C139.339 248.095 132.908 243.638 132.908 243.638C134.219 246.135 139.955 251.058 141.397 252.271L141.548 252.402C141.66 252.501 141.725 252.553 141.725 252.553L141.883 254.874L145.79 283.659L149.362 283.096L149.369 283.089Z" fill="#6D4224"/>
        <path d="M170.688 220.496C170.13 217.952 168.334 209.528 167.777 207.594C145.665 200.75 103.139 209.22 103.139 209.22C103.139 209.22 102.064 246.902 103.139 281.351C104.135 281.718 105.165 282.046 106.227 282.341C106.076 272.259 105.125 250.651 109.931 229.864C142.335 235.829 164.165 225.334 170.688 220.496Z" fill="#6D4224"/>
        <path d="M43.1486 30.2673C43.4567 29.8739 43.7451 29.4544 44.0336 29.0414C44.1647 29.2053 44.2958 29.3626 44.4269 29.5331C44.4269 29.5331 44.3417 29.2577 44.1975 28.8119C44.8006 27.9466 45.384 27.0682 45.9347 26.1569C46.2231 25.9537 46.4854 25.7308 46.7672 25.521C47.1344 26.2094 47.508 26.9305 47.8817 27.6844C47.8817 27.6844 47.6654 26.524 47.3638 25.0622C48.3799 24.2755 49.042 25.6063 49.9795 24.7344C51.6774 29.4872 53.1458 32.9288 53.1458 32.9288C53.1458 32.9288 53.9063 32.116 54.2472 28.9431C54.588 25.7702 57.2758 25.3572 57.8134 28.0974C58.351 30.8376 59.59 31.6767 57.9511 34.7906C55.0601 40.3039 57.0005 51.4942 57.0005 51.4942L55.9123 50.9304C54.1226 51.2058 48.8847 56.4765 45.3447 56.4175C45.384 53.3626 44.1975 46.1908 43.6992 44.5453C42.4406 43.4571 41.4441 41.7461 40.8017 39.727C40.192 37.8127 39.0841 36.9802 38.8875 35.0725C40.31 33.6565 41.7129 32.0766 43.142 30.2607L43.1486 30.2673Z" fill="#FCAC88"/>
        <path d="M44.2891 47.2527C44.0662 46.0334 43.8564 45.0435 43.7122 44.5518C43.8826 44.5912 47.7373 45.5024 50.2481 44.5518C47.5144 46.3415 45.0823 47.0561 44.2891 47.2593V47.2527Z" fill="#F79D79"/>
        <path d="M44.9248 26.1635C44.9248 26.1635 45.836 23.1086 48.5763 23.1872C51.3165 23.2593 53.5847 27.2845 53.8928 30.3852C54.1092 32.601 52.975 35.3347 50.5823 34.0629C48.1895 32.7911 44.9248 26.1635 44.9248 26.1635Z" fill="#FCAC88"/>
        <path d="M42.3745 28.8381C42.3745 28.8381 43.4234 27.1205 46.1309 26.9828C48.8383 26.8452 51.6048 29.2117 52.0112 32.2863C52.4176 35.3608 50.6739 37.4259 49.0546 35.3346C47.2584 33.014 42.3745 28.8446 42.3745 28.8446V28.8381Z" fill="#FCAC88"/>
        <path d="M40.9394 36.1868C40.9394 36.1868 41.7392 34.8363 42.6111 37.6683C43.4829 40.5003 46.2691 40.284 46.8328 39.399C48.6618 40.5593 51.3169 37.3143 51.2251 35.5968C51.1333 33.8792 48.9962 30.962 49.088 30.8767C51.4939 31.8666 51.7888 33.4662 51.7757 34.2135C51.7626 34.9609 51.3103 37.3209 51.3103 37.3209C51.3103 37.3209 53.9522 34.03 54.2013 32.1354C54.4504 30.2474 54.4832 29.546 52.5296 29.2051C50.5761 28.8707 47.7965 26.7729 47.7965 26.7729C47.7965 26.7729 46.6886 28.3791 47.2131 30.2277C47.1278 31.6175 41.2213 33.086 40.9263 36.1802L40.9394 36.1868Z" fill="#F49773"/>
        <path d="M52.0773 26.4649C52.0773 26.4649 52.1232 16.3169 52.3461 12.0296C52.5887 7.35543 49.7108 8.10932 48.9044 11.3412C48.1374 14.4223 48.1178 22.8725 47.2262 23.4297C46.3347 23.9869 41.2869 9.82033 39.1563 9.63677C37.0192 9.45322 37.1437 11.0397 37.5108 12.3836C37.878 13.7275 43.6993 28.3333 43.6993 28.3333L52.0773 26.478V26.4649Z" fill="#FCAC88"/>
        <path d="M40.2646 32.653C40.2646 32.653 40.2581 29.1261 42.4673 28.0969C44.6831 27.0677 47.9347 30.1882 48.8 32.8038C49.6588 35.4261 49.803 36.7765 48.741 37.5828C47.679 38.3892 46.44 36.0619 45.3059 34.5607C44.1718 33.0595 40.2646 32.6465 40.2646 32.6465V32.653Z" fill="#FCAC88"/>
        <path d="M38.9008 35.0787C38.9008 35.0787 38.7238 31.8533 40.9396 31.0601C43.1554 30.2669 45.7645 32.1352 46.2365 34.7706C46.7085 37.4059 45.4826 38.5269 44.4206 38.1532C43.3521 37.7796 43.9158 35.5638 42.6768 34.941C41.4378 34.3182 40.7692 36.6848 40.7692 36.6848L38.9074 35.0721L38.9008 35.0787Z" fill="#FCAC88"/>
        <path d="M45.3444 38.0943C46.1769 37.7075 46.4326 36.6783 46.4391 35.8261C46.4523 34.9411 46.2687 34.0561 45.895 33.2498C45.5082 32.4565 44.8986 31.7289 44.0922 31.329C43.299 30.916 42.3878 30.8111 41.5225 30.916C42.3878 30.916 43.2531 31.1061 43.9808 31.5256C44.715 31.9386 45.2788 32.6139 45.6263 33.3743C45.9999 34.1282 46.1769 34.9804 46.2097 35.8261C46.2294 36.639 46.1048 37.6158 45.3378 38.0878L45.3444 38.0943Z" fill="#E27A5A"/>
        <path d="M47.6002 37.4648C47.8428 37.6418 48.1705 37.7074 48.4721 37.6287C48.7737 37.55 49.0293 37.3468 49.2391 37.1239C49.6783 36.6519 49.7439 35.9636 49.7046 35.3605C49.5866 34.128 49.1146 32.9873 48.6163 31.886C48.0853 30.7912 47.3773 29.762 46.4464 28.9688C45.5352 28.1755 44.2765 27.638 43.0703 27.9199C44.2896 27.7494 45.4369 28.346 46.2957 29.1327C47.1675 29.939 47.8559 30.9289 48.3541 32.0106C48.872 33.0857 49.3243 34.2067 49.4817 35.3801C49.5472 35.957 49.5079 36.5798 49.1277 37.0321C48.8064 37.5041 48.1378 37.8188 47.5937 37.4713L47.6002 37.4648Z" fill="#E27A5A"/>
        <path d="M48.1575 29.1327C48.1575 29.1327 49.9603 30.6536 52.4711 30.2603C54.9884 29.8669 53.7756 32.1417 53.8543 33.1644C53.933 34.1871 58.1941 34.2264 58.1941 34.2264C58.1941 34.2264 60.1345 28.7984 58.6071 26.9432C57.0796 25.0879 51.4353 25.7041 49.1015 25.6058C46.7677 25.5075 47.8428 28.8967 48.1575 29.1262V29.1327Z" fill="#FCAC88"/>
        <path d="M48.1576 29.1327C47.9478 28.9819 47.4234 27.4807 47.738 26.4908C47.7642 26.4777 47.7905 26.4645 47.7905 26.4645C47.7905 26.4645 47.6528 28.5033 50.2422 29.1654C52.8317 29.8275 55.4408 28.7721 55.9259 28.7852C54.8115 30.2143 54.9688 31.4074 54.287 32.7513C53.4938 34.3181 52.4121 35.367 52.281 35.5899C52.2089 35.5375 53.4741 33.243 53.5004 33.1643C53.9199 32.0106 54.9885 29.8669 52.4711 30.2602C49.9538 30.6536 48.1576 29.1327 48.1576 29.1327Z" fill="#F49773"/>
        <path d="M51.494 25.5992L48.3867 25.6451C48.072 25.7041 47.9147 25.9794 47.8032 26.2154C47.6918 26.4645 47.6393 26.7267 47.6066 26.989C47.5476 27.5134 47.6066 28.051 47.7705 28.5557C48.1179 29.6309 49.2455 30.1619 50.255 30.3323C51.2842 30.5486 52.3725 30.3979 53.3492 30.4175C53.5918 30.4372 53.7754 30.5159 53.854 30.7191C53.9327 30.9158 53.9523 31.178 53.9392 31.414C53.8999 31.8991 53.7229 32.3908 53.5262 32.8562C53.1132 33.7871 52.5757 34.6721 52.0053 35.5309C51.4612 36.3962 50.7205 37.1632 50.3599 38.1662C50.0059 39.1495 49.9207 40.2247 50.1108 41.2342C49.9666 40.2116 50.1042 39.1561 50.491 38.2187C50.8516 37.2615 51.5923 36.5142 52.1627 35.6423C52.7527 34.7901 53.3033 33.9116 53.7426 32.9611C53.9523 32.4825 54.149 31.9909 54.2015 31.4468C54.2211 31.1714 54.2146 30.9026 54.1031 30.6208C54.0048 30.3192 53.6377 30.1488 53.3755 30.1422C52.2938 30.1422 51.3039 30.3061 50.2943 30.1094C49.3176 29.9521 48.2818 29.4735 47.9474 28.5033C47.7836 28.0313 47.718 27.52 47.7705 27.0152C47.8229 26.5497 47.9671 25.9335 48.4063 25.7959L51.4875 25.6057L51.494 25.5992Z" fill="#E27A5A"/>
        <path d="M98.6027 103.762C98.6027 103.762 89.3003 98.4713 83.125 94.8264C83.125 94.8264 71.0562 87.4055 69.9614 85.1045C68.8666 82.7969 57.1715 45.0434 57.1715 45.0434C57.1715 45.0434 44.611 52.3791 41.7331 53.251C41.6872 72.8784 50.0718 95.9015 52.4908 101.815C54.9098 107.728 73.1212 120.072 73.1212 120.072L99.0485 141.64C99.0485 141.64 101.323 111.923 98.6027 103.762Z" fill="#E56566"/>
        <path d="M70.6165 85.9564C70.6165 85.9564 62.1139 89.7455 58.9148 97.0091C58.6263 90.4666 66.1783 84.0553 70.6165 85.9564Z" fill="#D64C56"/>
        <path d="M211.536 128.64C211.536 128.64 213.004 125.69 212.316 122.156C211.627 118.623 211.26 117.633 211.719 114.408C212.178 111.182 213.338 108.108 214.459 108.036C215.58 107.964 216.505 109.602 216.478 111.589C216.452 113.575 216.465 116.682 216.767 117.069C219.474 112.041 219.953 111.084 222.431 110.225C223.27 109.937 224.47 110.074 224.66 111.425C226.292 111.694 228.324 111.195 228.816 113.333C230.586 113.09 232.035 112.893 232.159 113.903C234.198 113.359 235.181 112.782 235.26 114.644C235.339 116.505 234.139 120.308 231.641 123.441C229.144 126.575 225.079 130.036 224.601 131.76C224.122 133.484 211.542 128.646 211.542 128.646L211.536 128.64Z" fill="#F79F7C"/>
        <path d="M155.544 107.806C155.544 107.806 163.03 108.095 172.247 117.161C181.464 126.228 192.93 144.472 192.93 144.472L211.718 121.501L230.317 132.042C230.317 132.042 221.322 159.373 201.721 175.073C188.217 185.89 161.699 149.487 161.699 149.487L155.55 107.806H155.544Z" fill="#E56566"/>
        <path d="M179.899 125.932C172.281 130.495 166.375 137.09 160.901 144.098L161.694 149.493C161.694 149.493 168.931 159.425 177.768 167.377C177.827 156.56 179.768 144.806 189.7 139.542C187.261 135.903 183.695 130.777 179.892 125.939L179.899 125.932Z" fill="#DB585E"/>
        <path d="M139.018 105.735L155.545 107.806C155.545 107.806 161.432 126.981 162.9 134.717C164.362 142.459 162.69 153.544 163.739 164.21C164.788 174.876 172.255 215.534 172.255 215.534C172.255 215.534 123.639 225.367 96.3414 220.142C97.2854 179.15 99.6389 147.874 96.3414 135.169C93.044 122.464 96.3873 102.732 96.3873 102.732L118.407 106.233L139.018 105.728V105.735Z" fill="#E56566"/>
        <path d="M163.732 164.211C163.443 161.274 163.365 158.304 163.365 155.38L153.472 109.635L144.747 107.57L141.81 111.674C141.81 111.674 149.375 163.994 148.261 200.64C157.779 202.469 165.633 201.387 169.547 200.555C167.298 187.817 164.355 170.609 163.725 164.204L163.732 164.211Z" fill="#DB585E"/>
        <path d="M96.7334 205.53C103.545 205.557 118.419 205.248 119.547 202.115C121.009 198.044 122.739 174.201 122.471 154.095C122.202 133.989 116.623 109.937 116.623 109.937L97.625 135.13L97.2972 140.571C98.8377 153.479 97.6315 176.41 96.74 205.524L96.7334 205.53Z" fill="#DB585E"/>
        <path d="M160.9 112.002C160.9 112.002 157.261 138.663 161.693 149.493C156.534 142.007 155.229 120.812 160.9 112.002Z" fill="#D64C56"/>
        <path d="M98.8521 104.627C98.8521 104.627 101.153 123.586 95.5874 135.517C104.195 124.772 101.573 108.469 98.8521 104.627Z" fill="#D64C56"/>
        <path d="M131.019 168.465C145.114 166.734 158.605 169.429 164.61 170.93C164.204 168.163 163.895 165.843 163.732 164.217C163.319 160.002 163.332 155.721 163.404 151.611C161.929 151.696 143.121 152.823 124.791 155.963C111.739 158.199 102.509 162.106 97.9726 164.355C97.9005 168.727 97.776 173.441 97.6187 178.475C103.283 175.847 116.663 170.228 131.019 168.472V168.465Z" fill="#DB585E"/>
        <path d="M138.349 102.228C138.349 102.228 140.847 103.191 142.873 107.577C144.898 111.963 143.469 117.437 134.763 118.813C126.058 120.19 117.824 114.985 114.605 112.336C111.386 109.694 113.471 102.273 118.748 102.228C124.025 102.175 138.349 102.228 138.349 102.228Z" fill="#D3464E"/>
        <path d="M145.685 78.2929C145.685 78.2929 148.248 75.8149 150.982 76.4115C153.715 77.008 152.863 82.1345 150.982 85.6417C149.1 89.1424 146.026 88.205 145.685 86.4087C145.344 84.6125 145.685 78.2929 145.685 78.2929Z" fill="#FCAC88"/>
        <path d="M151.007 76.4181C151.007 76.4181 150.994 76.4181 150.987 76.4181C148.254 75.8215 145.691 78.2995 145.691 78.2995C145.691 78.2995 145.35 84.6257 145.691 86.4153C145.907 87.5625 147.251 88.3623 148.673 87.8707C148.673 87.8707 147.572 87.6281 147.513 85.7335C147.454 83.9242 148.313 77.349 151.007 76.4312V76.4181Z" fill="#F79F7C"/>
        <path d="M149.748 85.9562C149.748 85.9562 151.322 84.8614 151.715 81.0198C151.918 79.0138 151.61 77.8731 151.112 77.7814C150.614 77.6896 149.584 79.1711 149.237 79.9447C148.896 80.7117 149.532 81.5115 149.394 81.8196C149.257 82.1277 148.778 82.3113 148.28 82.8488C147.775 83.3864 147.808 83.7666 147.755 84.7303C147.703 85.6939 148.562 85.5366 149.086 84.6188C149.611 83.6945 150.102 82.7243 150.056 81.5246C150.011 80.3249 150.863 79.099 151.04 78.9482C151.217 78.7975 151.073 83.8846 149.742 85.9627L149.748 85.9562Z" fill="#EF8965"/>
        <path d="M118.964 84.5472C118.964 84.5472 117.522 100.759 116.879 107.472C117.751 114.211 140.892 117.928 140.158 109.865C137.837 103.309 138.749 99.094 138.749 99.094L118.97 84.5472H118.964Z" fill="#FCAC88"/>
        <path d="M118.748 92.4008C118.833 88.002 118.964 84.5472 118.964 84.5472L138.742 99.094C138.742 99.094 138.211 101.598 139.018 105.735C128.83 111.628 121.003 102.378 118.748 92.4008Z" fill="#F4906E"/>
        <path d="M119.456 60.7763C119.456 60.7763 117.575 67.6138 116.211 69.3182C114.841 71.0293 115.018 83.1636 116.211 88.631C117.404 94.0983 122.649 101.565 131.079 101.565C139.51 101.565 145.436 94.0459 146.918 86.8675C148.399 79.6892 146.688 69.3248 146.236 68.1841C144.302 66.2502 144.754 61.0058 143.843 59.7537C142.932 58.5016 138.631 57.9312 131.381 57.8198C124.13 57.7083 119.686 60.0028 119.463 60.7829L119.456 60.7763Z" fill="#FCAC88"/>
        <path d="M135.418 75.9135C135.418 75.9135 134.474 77.4147 134.061 79.6895C133.648 81.9642 134.363 83.7867 134.553 84.9339C134.743 86.0811 134.821 87.012 135.418 86.8613C136.015 86.7105 136.814 86.6449 136.428 85.596C136.041 84.5471 134.985 81.112 134.88 79.991C134.769 78.87 135.418 75.9135 135.418 75.9135Z" fill="#FFBFA6"/>
        <path d="M136.631 86.2515C136.631 86.2515 137.136 87.3069 135.458 88.0084C133.779 88.7098 131.269 88.0084 131.02 86.2515C133.085 86.9464 135.877 87.1102 136.631 86.2515Z" fill="#F29170"/>
        <path d="M146.235 68.1779C144.301 66.244 144.753 60.9995 143.842 59.7474C142.931 58.4953 138.63 57.9249 131.38 57.8135C124.13 57.702 119.685 59.9965 119.462 60.7766C119.462 60.7766 117.581 67.6141 116.217 69.3185C114.847 71.0295 115.024 83.1639 116.217 88.6312C117.41 94.0986 122.655 101.565 131.085 101.565C132.003 101.565 132.881 101.474 133.74 101.303C129.249 102.044 123.343 98.4056 120.478 92.6105C117.613 86.8088 117.856 77.5327 118.413 75.1595C118.97 72.7864 122.687 66.6439 126.05 68.4007C129.407 70.1576 135.385 70.5706 134.271 67.2142C136.107 69.3382 140.787 68.8596 142.754 65.9096C143.901 69.5086 146.799 70.8984 146.799 70.8984C146.582 69.4824 146.366 68.4925 146.242 68.1844L146.235 68.1779Z" fill="#F79F7C"/>
        <path d="M142.747 61.891C142.747 61.891 143.245 67.1682 145.042 69.1808C146.838 71.1933 146.785 79.414 146.458 80.948C147.113 81.0922 148.09 78.8896 148.09 78.8896C148.09 78.8896 149.132 76.7262 149.781 76.3395C150.692 71.154 149.873 64.2772 148.641 61.9041C147.415 59.531 142.747 61.9041 142.747 61.9041V61.891Z" fill="#44271F"/>
        <path d="M116.466 78.2929C116.466 78.2929 113.903 75.8149 111.169 76.4115C108.435 77.008 109.288 82.1345 111.169 85.6417C113.05 89.1424 116.125 88.205 116.466 86.4087C116.807 84.6125 116.466 78.2929 116.466 78.2929Z" fill="#F79F7C"/>
        <path d="M117.725 66.1716C117.725 66.1716 111.386 63.3658 112.042 56.489C112.697 49.6122 123.016 46.6622 125.631 47.6455C128.254 48.6289 125.631 51.5789 125.631 51.5789C132.836 44.5382 137.917 44.3743 140.204 45.6854C142.499 46.9965 137.582 50.4317 137.582 50.4317C145.934 47.4817 151.172 48.7928 151.5 51.0872C151.827 53.3817 147.501 54.6928 147.501 54.6928C154.614 54.365 158.213 60.7501 155.754 62.8807C153.296 65.0113 141.181 63.5363 139.706 62.5529C145.377 66.8337 137.576 67.7908 132.829 64.6835C133.649 69.2658 125.625 66.4863 122.839 65.1751C120.053 63.864 117.712 66.1782 117.712 66.1782L117.725 66.1716Z" fill="#44271F"/>
        <path d="M147.507 54.6863C147.507 54.6863 151.833 53.3752 151.506 51.0807C151.178 48.7863 145.94 47.4752 137.588 50.4252C137.588 50.4252 142.498 46.9835 140.21 45.6789C137.995 44.4137 133.183 44.5252 126.359 50.8841L125.631 51.579C125.631 51.579 122.025 55.9843 127.217 55.0796C132.409 54.175 133.124 53.1916 133.124 53.1916C130.528 57.6625 138.224 57.1774 140.368 55.945C137.418 58.9147 146.327 59.721 147.507 59.721C148.484 59.721 153.8 60.134 156.003 62.6382C157.956 60.3044 154.364 54.3782 147.507 54.6929V54.6863Z" fill="#543129"/>
        <path d="M118.263 65.0834C118.263 65.0834 118.918 68.7677 117.443 70.9769C115.968 73.1861 116.08 82.1607 116.08 82.1607C115.345 81.8329 114.906 80.8889 114.906 80.8889C114.906 80.8889 113.621 77.1785 111.169 76.4115C109.747 70.4066 110.153 60.5011 113.595 60.4224C117.037 60.3437 118.263 65.09 118.263 65.09V65.0834Z" fill="#44271F"/>
        <path d="M136.337 73.7695C136.337 73.7695 140.912 73.9137 142.728 75.8739C143.672 76.2344 142.8 73.8416 140.335 72.6813C137.864 71.521 136.848 71.6258 136.087 71.8815C135.327 72.1372 135.655 73.7236 136.343 73.7695H136.337Z" fill="#44271F"/>
        <path d="M127.833 73.7695C127.833 73.7695 123.257 73.9137 121.441 75.8739C120.497 76.2344 121.369 73.8416 123.834 72.6813C126.306 71.521 127.322 71.6258 128.082 71.8815C128.843 72.1372 128.515 73.7236 127.827 73.7695H127.833Z" fill="#44271F"/>
        <path d="M123.285 79.2499C123.285 79.2499 123.888 76.8834 125.088 76.6212C126.287 76.3589 127.159 77.1784 127.71 78.9812" stroke="#44271F" stroke-width="0.773558" stroke-miterlimit="10" stroke-linecap="round"/>
        <path d="M141.049 79.2499C141.049 79.2499 140.446 76.8834 139.246 76.6212C138.047 76.3589 137.175 77.1784 136.624 78.9812" stroke="#44271F" stroke-width="0.773558" stroke-miterlimit="10" stroke-linecap="round"/>
        <path d="M134.363 87.1493C133.065 87.1493 131.57 86.8412 130.737 86.2184C130.646 86.1463 130.626 86.0152 130.691 85.9168C130.764 85.825 130.895 85.8054 130.993 85.8709C132.219 86.7887 135.169 86.9723 136.165 86.3888C136.382 86.2643 136.408 86.1528 136.408 86.0938C135.988 85.1826 134.585 81.0723 134.5 79.689C134.415 78.2927 135.392 75.2181 135.438 75.087C135.47 74.9756 135.595 74.91 135.706 74.9494C135.818 74.9887 135.883 75.1067 135.844 75.2181C135.831 75.2509 134.848 78.3517 134.926 79.6694C135.005 81.0001 136.434 85.1629 136.808 85.9562L136.827 86.0217C136.854 86.2315 136.795 86.5265 136.382 86.769C135.942 87.0247 135.189 87.1493 134.356 87.1493H134.363Z" fill="#D8664C"/>
        <path d="M126.037 88.0081C126.037 88.0081 134.527 90.5516 139.371 88.2572C138.159 94.9701 128.083 96.0321 126.037 88.0081Z" fill="#8E380D"/>
        <path d="M136.146 92.8001C133.439 90.5778 130.279 91.8758 129.053 92.5379C131.21 93.9932 133.996 93.9998 136.146 92.8001Z" fill="#B2542B"/>
        <path d="M138.349 88.6571C133.425 90.2238 126.037 88.0081 126.037 88.0081C126.123 88.3424 126.227 88.6505 126.332 88.9521C126.634 89.2733 126.994 89.5748 127.427 89.8174C129.269 90.8401 133.57 91.1285 135.864 90.5516C137.3 90.1911 138.014 89.2864 138.349 88.6571Z" fill="#FFF9F3"/>
        <path d="M125.028 84.547C125.028 85.963 123.88 87.1102 122.464 87.1102C121.048 87.1102 119.901 85.963 119.901 84.547C119.901 83.131 121.048 81.9838 122.464 81.9838C123.88 81.9838 125.028 83.131 125.028 84.547Z" fill="#F79F7C"/>
        <path d="M129.558 95.3571C129.558 95.3571 132.593 93.9804 135.419 95.5668C134.212 93.5608 130.974 93.3642 129.558 95.3571Z" fill="#F79F7C"/>
        <path d="M144.898 84.5469C144.898 85.9629 143.751 87.1102 142.335 87.1102C140.919 87.1102 139.771 85.9629 139.771 84.5469C139.771 83.1309 140.919 81.9837 142.335 81.9837C143.751 81.9837 144.898 83.1309 144.898 84.5469Z" fill="#F79F7C"/>
        <path d="M113.025 85.9369C113.025 85.9369 111.366 84.9797 110.652 81.1906C110.278 79.2043 110.488 78.0505 110.98 77.9128C111.471 77.7817 112.618 79.1715 113.031 79.9057C113.438 80.6399 112.868 81.4856 113.031 81.7872C113.195 82.0887 113.687 82.2264 114.231 82.7181C114.775 83.2097 114.775 83.59 114.913 84.5471C115.051 85.5042 114.179 85.419 113.576 84.5471C112.972 83.6752 112.402 82.7443 112.35 81.5446C112.297 80.3449 111.34 79.1977 111.15 79.0601C110.96 78.9224 111.537 83.9833 113.038 85.9369H113.025Z" fill="#EF8965"/>
        <path d="M97.6194 102.739C97.6194 102.739 107.322 98.9497 114.92 103.689C120.774 121.291 117.345 189.331 116.88 195.435C112.704 200.233 95.5872 198.155 95.5872 198.155L94.8858 191.291C94.8858 191.291 87.1895 185.831 88.717 175.584C90.2444 165.338 89.2414 139.345 92.2504 135.989C95.2594 132.632 99.5533 110.796 97.6194 102.739Z" fill="#5652A3"/>
        <path d="M94.7078 191.154C94.8192 191.239 94.8848 191.285 94.8848 191.285L95.5862 198.149C95.5862 198.149 112.703 200.227 116.879 195.428C116.951 194.491 117.095 192.078 117.259 188.617C109.897 190.21 102.476 191.042 94.7078 191.147V191.154Z" fill="#6969B7"/>
        <path d="M141.817 105.643C141.817 105.643 147.416 118.236 148.268 138.08C149.12 157.924 151.775 194.406 151.775 194.406C151.775 194.406 167.43 195.782 170.269 194.406L170.491 188.886C170.491 188.886 170.885 179.472 170.688 172.294C170.491 165.115 165.155 152.306 162.638 143.383C160.121 134.461 160.245 112.749 160.894 109.275C156.744 104.279 144.112 103.401 141.817 105.636V105.643Z" fill="#5652A3"/>
        <path d="M151.158 185.66C151.525 190.983 151.781 194.405 151.781 194.405C151.781 194.405 167.435 195.782 170.274 194.405L170.497 188.886C170.497 188.886 170.529 188.073 170.575 186.742C164.177 186.329 157.517 188.014 151.164 185.654L151.158 185.66Z" fill="#6969B7"/>
        <path d="M258.578 154.842C257.805 152.784 254.265 147.631 247.571 132.894C240.878 118.157 237.535 115.325 237.535 115.325C234.355 124.752 234.958 145.829 234.958 145.829C234.958 145.829 247.48 168.478 254.94 173.886C262.407 179.295 291.763 192.871 291.763 192.871L296.548 181.989L258.578 154.842Z" fill="#FCAC88"/>
        <path d="M274.403 166.158L266.871 160.776C266.779 166.78 263.848 172.412 259.62 176.81C263.304 178.915 268.142 181.426 272.948 183.825C272.948 177.945 273.157 171.979 274.403 166.164V166.158Z" fill="#F79F7C"/>
        <path d="M297.341 198.614C295.178 197.382 294.129 196.621 292.188 194.111C290.648 192.118 287.35 189.22 285.141 188.027C284.702 187.857 284.249 187.68 283.791 187.503C283.751 187.503 283.712 187.483 283.679 187.483C283.62 187.47 283.574 187.437 283.535 187.404C283.187 187.267 282.833 187.129 282.479 186.985L282.892 173.565C285.475 175.375 288.019 177.164 290.294 178.751C291.992 179.393 294.516 180.16 296.751 180.082C300.54 179.944 301.051 179.872 304.565 180.855C308.079 181.832 310.092 180.704 311.134 180.475C312.176 180.246 312.983 181.583 311.632 183.025C310.282 184.467 307.784 184.782 306.447 184.789C305.109 184.802 302.861 186.067 304.185 188.276C305.509 190.485 315.303 194.425 317.145 195.481C318.987 196.536 318.325 198.149 316.313 197.696C314.3 197.244 306.545 193.861 305.594 193.724C304.644 193.586 314.34 200.116 315.847 201.223C317.349 202.325 316.621 203.393 314.68 202.974C312.74 202.554 304.762 197.061 304.572 197.015C305.175 198.024 311.921 204.259 311.344 205.504C310.767 206.743 309.344 205.989 307.948 204.652C306.552 203.315 301.36 198.798 301.36 198.798C301.36 198.798 305.162 205.537 305.345 206.573C305.529 207.609 304.565 207.713 302.972 206.376C301.379 205.039 299.511 199.873 297.348 198.64L297.341 198.614Z" fill="#FCAC88"/>
        <path d="M288.262 190.21C288.262 190.21 288.492 185.549 291.402 183.314C287.751 184.408 286.99 187.942 288.262 190.21Z" fill="#ED8662"/>
        <path d="M299.039 198.241C299.039 198.241 303.654 195.323 305.123 190.892C305.293 192.406 303.255 197.08 299.039 198.241Z" fill="#ED8662"/>
        <path d="M304.139 185.916C304.139 185.916 298.285 189.043 293.506 187.607C297.885 190.761 302.566 188.761 304.139 185.916Z" fill="#ED8662"/>
        <path d="M183.609 186.106L179.433 210.191H240.491L235.798 189.515L183.609 186.106Z" fill="#FCAC88"/>
        <path d="M183.608 186.106L182.33 193.468C188.663 196.097 215.665 205.897 236.256 191.521L235.797 189.508L183.608 186.106Z" fill="#F79F7C"/>
        <path d="M171.126 122.582C171.126 122.582 159.156 137.136 147.238 145.402C141.836 149.145 117.22 148.123 106.993 145.297C105.328 144.36 103.355 143.036 102.017 141.43C99.3231 138.191 99.0019 137.713 95.5865 135.53C92.171 133.347 91.6138 130.842 91.0303 129.807C90.4469 128.771 88.7424 129.092 88.5523 131.282C88.3622 133.465 89.9552 135.772 90.932 136.887C91.9153 138.001 92.5316 140.8 89.7192 141.338C86.9069 141.875 76.3918 136.69 74.1563 135.943C71.9209 135.195 71.0752 136.946 72.9435 138.276C74.8119 139.607 83.3538 143.527 84.1732 144.209C84.9927 144.891 72.3994 141.705 70.3737 141.279C68.3481 140.853 68.0006 142.249 69.7837 143.54C71.5668 144.832 82.0295 147.375 82.2065 147.493C80.9217 147.743 70.7671 146.779 70.1639 148.175C69.5608 149.572 71.2456 150.194 73.3827 150.358C75.5264 150.522 83.1112 151.479 83.1112 151.479C83.1112 151.479 74.7201 153.321 73.7236 153.938C72.7272 154.554 73.3565 155.426 75.6444 155.753C77.9323 156.081 83.5963 153.8 86.2186 154.678C88.8408 155.557 90.2437 155.858 93.764 155.603C95.9864 155.439 98.6414 156.127 100.955 156.894C100.955 156.894 101.565 157.117 102.666 157.484C102.699 157.504 102.752 157.517 102.798 157.53C110.651 160.165 133.491 165.98 147.749 163.659C164.151 160.991 180.953 139.83 180.953 139.83C180.953 139.83 178.587 127.512 171.12 122.589L171.126 122.582Z" fill="#FCAC88"/>
        <path d="M99.9121 155.957C99.9121 155.957 103.596 152.312 103.295 148.247C105.098 152.082 102.731 155.327 99.9121 155.957Z" fill="#ED8662"/>
        <path d="M85.0314 152.987C85.0314 152.987 84.0284 147.008 86.6113 142.505C85.2346 143.488 82.8746 148.641 85.0314 152.987Z" fill="#ED8662"/>
        <path d="M91.7048 139.627C91.7048 139.627 93.4486 146.792 98.1818 149.683C92.3276 148.391 90.5117 143.036 91.7048 139.627Z" fill="#ED8662"/>
        <path d="M186.295 114.749C186.295 114.749 175.053 119.252 170.26 122.163C175.066 138.735 183.785 152.548 185.528 167.082C186.112 176.679 182.382 191.744 182.382 191.744C217.847 198.43 236.249 190.406 236.249 190.406C236.249 190.406 233.797 167.698 233.797 165.141C233.797 162.585 239.028 151.237 240.195 147.461C241.362 143.685 238.74 134.959 237.868 132.344C236.996 129.728 237.868 115.332 237.868 115.332L223.911 113.333L186.295 114.749Z" fill="#4EC49D"/>
        <path d="M233.797 165.135C233.797 163.417 236.15 157.753 238.052 153.066C234.879 155.8 229.811 159.432 223.911 160.972C213.881 163.588 194.726 160.972 194.726 160.972C208.643 166.859 219.984 167.442 223.911 168.459C226.835 169.219 231.319 171.756 234.702 175.578C234.289 170.733 233.79 166.177 233.79 165.135H233.797Z" fill="#40B58A"/>
        <path d="M197.427 107.564C197.925 104.122 198.351 99.061 197.794 93.4691C202.612 96.8125 215.88 106.049 215.88 106.049L216.418 110.271C218.372 111.503 220.096 112.729 223.918 113.326C223.033 117.076 224.396 131.636 213.756 134.251C203.117 136.867 195.493 134.592 186.302 114.749C195.244 112.788 197.427 107.57 197.427 107.57V107.564Z" fill="#FCAC88"/>
        <path d="M213.128 113.123C206.054 115.955 200.934 110.579 197.768 104.764C198.076 101.611 198.22 97.6909 197.801 93.4691C202.619 96.8125 215.888 106.049 215.888 106.049L216.425 110.271C216.425 110.271 216.445 110.284 216.451 110.291C215.468 111.549 214.301 112.736 213.134 113.123H213.128Z" fill="#F79F7C"/>
        <path d="M194.34 60.0751C194.34 60.0751 190.931 45.9085 181.497 49.8091C172.064 53.7097 168.524 65.6342 172.385 70.1379C176.24 74.6416 187.784 70.8459 187.784 70.8459L194.34 60.0817V60.0751Z" fill="#543129"/>
        <path d="M174.745 54.9488C174.469 57.8135 175.269 60.8553 176.403 63.3989C177.387 64.8673 178.855 65.8507 180.815 65.359C185.765 63.1105 186.997 56.332 192.845 55.978C193.88 58.1872 194.339 60.0752 194.339 60.0752L187.784 70.8395C187.784 70.8395 176.239 74.6351 172.385 70.1315C169.664 66.952 170.628 60.0818 174.745 54.9422V54.9488Z" fill="#442722"/>
        <path d="M181.996 72.2617C182.009 72.0847 182.029 71.9012 182.055 71.7242C182.061 71.6586 182.068 71.5931 182.081 71.5341C182.101 71.403 182.114 71.2718 182.133 71.1407C182.166 70.9375 182.186 70.8326 182.186 70.8326C182.52 69.0102 183.228 67.1812 184.434 65.4505C190.367 56.9348 209.169 52.8048 216.386 59.8389C222.588 65.8832 222.28 72.9435 222.28 72.9435C222.28 72.9435 219.546 68.6627 217.101 68.9971C214.656 69.3314 206.494 69.9804 202.272 72.9042C199.139 75.0741 197.847 79.0271 196.962 81.9902L200.017 99.6837C200.017 99.6837 193.245 99.7624 188.591 94.295C181.622 85.1107 181.675 75.7493 182.002 72.2683L181.996 72.2617Z" fill="#543129"/>
        <path d="M201.695 73.6192C201.695 73.6192 200.089 63.917 189.437 62.2256C192.308 62.2256 202.259 63.8514 201.695 73.6192Z" fill="#492A25"/>
        <path d="M205.308 69.3052C205.308 69.3052 201.715 60.1536 190.951 60.7108C193.757 60.1143 203.833 59.6357 205.308 69.3052Z" fill="#492A25"/>
        <path d="M209.994 67.9286C209.994 67.9286 206.107 58.3181 194.051 59.0654C197.198 58.3968 208.48 57.7478 209.994 67.9286Z" fill="#492A25"/>
        <path d="M181.996 72.262C182.009 72.085 182.029 71.9014 182.055 71.7244C182.061 71.6588 182.068 71.5933 182.081 71.5343C182.101 71.4032 182.114 71.2721 182.133 71.1409C182.166 70.9377 182.186 70.8328 182.186 70.8328C182.455 69.3775 182.966 67.9156 183.772 66.5062C183.274 69.0038 183.556 71.6195 184.743 73.6976C187.063 78.3324 192.118 80.5351 197.041 82.4559L200.017 99.6774C200.017 99.6774 193.245 99.756 188.591 94.2887C181.622 85.1043 181.675 75.743 182.002 72.262H181.996Z" fill="#492A25"/>
        <path d="M204.481 66.3355C204.481 66.3355 197.086 76.7523 196.116 84.5928C195.139 92.4332 196.253 97.7432 199.21 101.08C202.16 104.417 205.818 105.866 208.971 107.282C212.124 108.698 218.457 107.006 220.365 105.144C222.272 103.283 223.616 100.123 225.059 96.2682C226.193 93.233 226.501 87.6804 224.803 81.9771C223.105 76.2737 221.656 65.8766 215.31 64.808C208.958 63.7395 204.481 66.3421 204.481 66.3421V66.3355Z" fill="#FCAC88"/>
        <path d="M219.781 91.0504C219.781 91.0504 219.152 94.1512 216.241 94.5904C213.33 95.0297 212.819 91.8961 213.029 90.8997C214.268 92.1977 216.805 92.8008 219.781 91.0504Z" fill="#F79F7C"/>
        <path d="M205.914 105.897C205.914 105.897 205.903 105.891 205.891 105.885C205.897 105.885 205.903 105.891 205.914 105.897Z" fill="#F79F7C"/>
        <path d="M196.109 84.593C197.086 76.7526 204.474 66.3358 204.474 66.3358C204.474 66.3358 208.952 63.7332 215.304 64.8018C218.864 65.3983 220.883 68.9383 222.273 72.9307C222.273 72.9175 219.585 67.2929 214.268 66.9192C208.945 66.5455 205.759 68.7351 203.439 72.2423C201.124 75.7496 197.368 82.5018 197.991 90.9192C198.574 98.7662 201.878 103.709 205.392 105.636C203.248 104.561 201.079 103.204 199.197 101.074C196.247 97.7369 195.133 92.4269 196.103 84.5865L196.109 84.593Z" fill="#F79F7C"/>
        <path d="M205.721 96.2684C207.162 96.2684 208.33 95.1003 208.33 93.6593C208.33 92.2183 207.162 91.0502 205.721 91.0502C204.28 91.0502 203.112 92.2183 203.112 93.6593C203.112 95.1003 204.28 96.2684 205.721 96.2684Z" fill="#F79F7C"/>
        <path d="M225.905 87.9164C226.056 89.811 226.003 91.5745 225.8 93.1085C224.449 93.0036 223.387 91.8957 223.387 90.519C223.387 89.1423 224.508 87.9689 225.911 87.9164H225.905Z" fill="#F79F7C"/>
        <path d="M196.549 95.462C196.549 95.462 193.697 97.1206 190.399 93.6003C187.102 90.0799 188.282 85.8122 190.812 86.2777C193.349 86.7431 196.345 90.4339 196.345 90.4339L196.542 95.462H196.549Z" fill="#F79F7C"/>
        <path d="M193.96 94.3675C193.96 94.3675 191.561 94.3675 189.915 91.0438C188.63 88.4478 190.171 86.763 191.397 87.1367C192.616 87.5103 193.652 88.2315 193.337 89.2935C193.023 90.3555 193.462 90.8537 194.183 91.0438C194.904 91.2339 194.839 92.3025 194.432 92.5516C194.026 92.8007 192.721 92.1058 192.465 91.0438C192.21 89.9818 192.465 89.6409 192.465 89.6409C191.679 90.1129 191.115 90.5193 191.115 91.1749C190.958 89.7655 190.984 89.4049 192.465 88.71C191.554 87.7332 190.276 88.0479 190.197 89.1427C190.079 90.8537 192.138 93.6726 193.96 94.3675Z" fill="#EA805C"/>
        <path d="M192.806 95.0558C192.806 95.9343 193.521 96.6488 194.399 96.6488C195.278 96.6488 195.992 95.9343 195.992 95.0558C195.992 94.1774 195.278 93.4628 194.399 93.4628C193.521 93.4628 192.806 94.1774 192.806 95.0558Z" fill="#FFEEDE"/>
        <path d="M210.283 79.9845C210.283 79.9845 206.199 79.27 203.721 81.5644C203.492 79.3355 206.481 78.1096 208.251 78.2145C210.237 78.2998 210.873 79.7551 210.283 79.9845Z" fill="#543129"/>
        <path d="M218.399 84.1278C218.215 84.0425 218.123 83.8262 218.196 83.6295C218.517 82.7249 219.566 81.1187 221.25 81.5449C222.876 81.9579 223.414 83.3739 223.473 84.0688C223.492 84.2916 223.329 84.4818 223.106 84.5014C222.883 84.5211 222.693 84.3572 222.673 84.1343C222.673 84.0753 222.522 82.6921 221.054 82.3184C219.657 81.9644 218.982 83.8131 218.949 83.8917C218.877 84.1015 218.648 84.213 218.438 84.1343C218.425 84.1343 218.412 84.1278 218.399 84.1212V84.1278Z" fill="#44271F"/>
        <path d="M206.075 86.4876C205.878 86.4352 205.753 86.2385 205.786 86.0353C205.937 85.0847 206.684 83.3213 208.422 83.4327C210.093 83.5442 210.88 84.8422 211.063 85.5174C211.122 85.7337 210.998 85.9501 210.782 86.0091C210.565 86.0681 210.349 85.9369 210.29 85.7272C210.277 85.6747 209.877 84.3308 208.369 84.2325C206.933 84.1342 206.599 86.0746 206.586 86.1598C206.553 86.3762 206.343 86.5269 206.127 86.4942C206.114 86.4942 206.101 86.4942 206.088 86.4876H206.075Z" fill="#44271F"/>
        <path d="M223.178 78.2015C223.178 78.2015 220.739 77.7951 218.137 79.0538C216.386 79.788 216.34 77.6771 217.816 76.9887C219.291 76.3004 222.581 76.1037 223.178 78.2015Z" fill="#543129"/>
        <path d="M216.767 80.5289C216.767 80.5289 216.564 82.5153 216.767 84.1345C216.924 85.4063 220.569 89.5232 220.045 90.7163C219.52 91.9028 214.407 93.3647 213.03 90.7163" stroke="#D8664C" stroke-width="0.511335" stroke-miterlimit="10"/>
        <path d="M216.242 100.825C216.242 100.825 213.417 102.49 211.273 100.608C212.46 102.87 214.138 103.978 216.242 100.825Z" fill="#F79D79"/>
        <path d="M220.077 94.5837C220.077 94.5837 216.242 96.5176 210.197 95.3508C210.138 98.8908 211.83 100.949 215.717 100.248C218.883 99.6774 220.286 96.026 220.077 94.5903V94.5837Z" fill="#8E3A24"/>
        <path d="M211.325 99.2251C214.203 97.8091 216.93 98.681 217.979 99.1333C217.363 99.6709 216.609 100.084 215.711 100.248C213.653 100.621 212.217 100.215 211.325 99.2316V99.2251Z" fill="#BC593F"/>
        <path d="M210.212 96.0913C210.198 95.8488 210.192 95.6062 210.192 95.3506C214.866 96.2552 218.209 95.3047 219.488 94.8261C219.396 95.1736 219.127 95.816 218.386 96.2683C217.41 96.8649 212.395 97.8941 210.212 96.0913Z" fill="#FFEEDE"/>
        <path d="M181.084 200.646C181.084 200.646 196.87 206.579 212.57 206.33C228.271 206.081 238.144 199.873 238.144 199.873C238.144 199.873 242.883 214.583 245.499 225.61C248.115 236.636 244.411 280.25 244.411 280.25H215.193L214.537 242.713H209.384L212.577 280.25L178.888 279.379C178.888 279.379 175.079 252.96 172.68 237.075C170.28 221.191 181.091 200.64 181.091 200.64L181.084 200.646Z" fill="#5652A3"/>
        <path d="M184.958 279.385C184.958 279.385 181.746 252.966 179.72 237.082C178.035 223.873 184.053 207.445 186.132 202.285C182.991 201.361 181.084 200.646 181.084 200.646C181.084 200.646 170.274 221.198 172.673 237.082C175.072 252.966 178.881 279.385 178.881 279.385L212.57 280.257V280.231L184.958 279.385Z" fill="#48489B"/>
        <path d="M245.506 225.616C242.89 214.59 238.15 199.879 238.15 199.879C238.15 199.879 237.173 200.495 235.344 201.341C236.406 205.327 239.363 216.681 241.153 225.616C243.362 236.643 240.235 280.257 240.235 280.257H244.417C244.417 280.257 248.121 236.643 245.506 225.616Z" fill="#48489B"/>
        <path d="M200.947 236.427C200.947 236.427 206.618 240.655 212.144 240.065C217.67 239.475 222.462 235.555 222.462 235.555C222.462 235.555 218.103 243.854 211.705 243.631C205.306 243.408 200.947 236.427 200.947 236.427Z" fill="#48489B"/>
        <path d="M178.534 206.179C178.534 206.179 192.511 212.44 211.994 212.296C231.477 212.151 239.724 204.921 239.724 204.921L237.875 198.68C237.875 198.68 228.927 205.143 211.81 204.921C194.694 204.698 181.215 199.879 181.215 199.879C181.215 199.879 178.941 203.629 178.528 206.179H178.534Z" fill="#3E3E87"/>
        <path d="M231.949 114.801C231.949 114.801 233.798 113.47 234.532 115.666C235.253 117.829 237.725 117.921 237.613 115.725C237.502 113.529 236.761 112.185 235.384 111.746C234.008 111.307 232.061 113.175 231.949 114.801Z" fill="#F79F7C"/>
        <path d="M234.531 115.666C235.069 117.266 236.557 117.731 237.252 116.971C237.291 116.912 237.331 116.853 237.37 116.794C236.675 117.331 235.777 116.82 235.305 115.286C234.892 113.929 233.627 112.664 233.332 112.382C233.194 112.493 233.063 112.618 232.945 112.749C232.781 113.149 232.742 113.765 232.801 114.434C233.384 114.316 234.132 114.447 234.538 115.666H234.531Z" fill="#F48E69"/>
        <path d="M228.447 113.942C228.447 113.942 230.65 114.762 231.528 117.253C232.525 120.078 234.668 119.173 234.609 116.669C234.55 114.165 233.344 111.235 231.968 110.658C230.591 110.081 228.591 112.107 228.447 113.942Z" fill="#F79F7C"/>
        <path d="M228.447 113.942C228.447 113.942 230.65 114.762 231.528 117.253C232.525 120.078 234.668 119.173 234.609 116.669C234.55 114.165 233.344 111.235 231.968 110.658C230.591 110.081 228.591 112.107 228.447 113.942Z" fill="#F79F7C"/>
        <path d="M232.584 116.925C232.427 116.125 232.158 115.168 231.496 113.496C231.011 112.271 230.25 111.569 229.877 111.281C229.693 111.445 229.523 111.622 229.365 111.818C229.26 112.448 229.234 113.418 229.319 114.414C230.034 114.893 231.011 115.778 231.535 117.253C232.296 119.403 233.718 119.39 234.328 118.157C233.764 118.275 232.741 117.699 232.591 116.925H232.584Z" fill="#F48E69"/>
        <path d="M224.371 112.277C224.371 112.277 227.078 115.555 227.95 118.046C228.933 120.852 230.926 119.967 231.051 117.463C231.202 114.434 229.628 110.763 228.291 110.133C226.954 109.504 224.646 110.442 224.371 112.277Z" fill="#F79F7C"/>
        <path d="M228.606 117.174C228.284 116.106 227.721 115.122 226.967 113.372C226.403 112.061 225.773 111.209 225.269 110.737C225.046 110.927 224.849 111.156 224.698 111.405C224.692 111.418 224.685 111.431 224.672 111.445C224.613 111.549 224.561 111.654 224.515 111.772C224.502 111.805 224.489 111.838 224.475 111.871C224.43 112.002 224.39 112.139 224.371 112.284C224.371 112.284 227.078 115.561 227.95 118.053C228.704 120.203 230.048 120.183 230.69 118.931C229.72 119.646 228.881 118.098 228.606 117.181V117.174Z" fill="#F48E69"/>
        <path d="M219.468 112.028C219.468 112.028 222.168 113.936 222.857 116.578C223.552 119.259 225.722 119.941 226.377 117.358C227.033 114.768 225.309 110.697 223.853 109.911C222.398 109.124 220.176 110.16 219.468 112.028Z" fill="#F79F7C"/>
        <path d="M223.918 117.128C223.328 116.079 222.876 115.044 222.05 113.365C221.23 111.687 219.467 112.028 219.467 112.028C219.467 112.028 222.168 113.936 222.856 116.578C223.256 118.131 224.154 119.003 224.967 118.97C225.623 118.695 226.173 118.157 226.377 117.351C225.577 118.413 224.502 118.171 223.912 117.122L223.918 117.128Z" fill="#F48E69"/>
        <path d="M335.416 219.402C335.416 219.402 336.517 253.235 335.416 284.171C321.164 288.812 302.12 284.171 302.12 284.171L296.18 257.562L291.742 286.229L257.529 284.164C257.529 284.164 263.717 234.847 269.237 217.933C291.873 211.784 335.409 219.395 335.409 219.395L335.416 219.402Z" fill="#604558"/>
        <path d="M296.573 253.556C293.407 254.54 282.898 248.404 282.898 248.404C282.898 248.404 289.277 256.756 290.057 257.968C290.608 258.834 288.392 276.094 287.068 285.948L291.748 286.229L296.187 257.562L302.126 284.171C302.126 284.171 305.299 284.945 310.025 285.541C308.275 278.513 303.47 258.945 303.47 255.576C303.47 251.452 309.396 242.727 309.396 242.727C309.396 242.727 299.746 252.573 296.58 253.563L296.573 253.556Z" fill="#563E50"/>
        <path d="M328.467 225.767C328.467 225.767 331.561 272.2 330.014 288.249L332.138 288.635C332.138 288.635 333.101 241.219 330.302 226.744C330.125 225.053 328.467 225.774 328.467 225.774V225.767Z" fill="#563E50"/>
        <path d="M335.415 219.402C335.415 219.402 291.873 211.791 269.243 217.94C263.723 234.853 257.535 284.171 257.535 284.171L262.169 284.453C263.644 270.85 269.151 235.043 286.143 235.345C304.833 235.673 330.295 228.592 335.612 227.045C335.507 222.253 335.415 219.408 335.415 219.408V219.402Z" fill="#563E50"/>
        <path d="M313.192 223.86C313.192 223.86 317.25 235.463 330.013 241.068C327.503 237.397 320.541 228.711 319.57 226.77C318.607 224.83 313.192 223.86 313.192 223.86Z" fill="#563E50"/>
        <path d="M266.937 100.608L243.474 88.1922C243.474 88.1922 237.66 104.476 243.474 120.465C257.143 128.319 264.878 135.989 264.878 135.989C264.878 135.989 272.306 103.447 266.937 100.608Z" fill="#ACA6E2"/>
        <path d="M286.131 104.627L261.646 99.4938C261.646 99.4938 264.222 141.338 267.297 153.879C270.371 166.426 264.917 222.817 264.917 222.817C281.89 229.937 329.968 225.531 336.609 224.174C331.391 200.784 329.536 157.471 329.372 149.67C329.208 141.876 329.182 115.319 329.182 115.319L303.405 105.302L286.125 104.627H286.131Z" fill="#ACA6E2"/>
        <path d="M282.748 102.516C282.748 102.516 278.061 104.522 277.392 109.544C276.724 114.565 280.572 117.41 288.104 117.076C295.637 116.742 303.667 114.926 307.686 109.806C311.704 104.686 302.999 104.437 302.999 104.437L282.748 102.509V102.516Z" fill="white"/>
        <path d="M287.947 140.571L293.676 152.896L306.512 156.888L297.216 164.151L299.399 176.994L287.927 169.16L276.442 173.106L278.645 161.005L269.362 150.595L282.198 150.949L287.947 140.571Z" fill="white"/>
        <path d="M330.775 176.692C325.36 178.803 313.776 182.894 308.525 181.471C301.55 179.583 293.513 164.092 293.513 164.092C293.513 164.092 289.835 167.423 291.409 172.929C292.982 178.436 293.513 179.183 293.513 179.183C293.513 179.183 285.561 180.252 284.669 183.313C283.778 186.375 284.106 188.781 285.849 192.865C287.593 196.949 291.31 201.204 294.359 202.836C297.407 204.468 304.389 205.235 309.404 200.876C313.527 197.29 326.422 195.035 332.663 198.109C331.883 190.865 331.26 183.477 330.781 176.686L330.775 176.692Z" fill="#938FD8"/>
        <path d="M353.882 135.982C353.882 135.982 370.914 148.916 377.896 156.553C384.871 164.184 369.753 172.274 363.939 171.716C358.124 171.159 335.612 153.859 335.612 153.859L353.882 135.975V135.982Z" fill="#F79D79"/>
        <path d="M329.189 115.325C329.189 115.325 357.155 137.857 363.265 142.223C353.668 149.637 344.077 162.329 344.077 162.329L325.76 153.557C325.76 153.557 310.381 124.188 329.196 115.319L329.189 115.325Z" fill="#ACA6E2"/>
        <path d="M329.568 155.387C329.568 155.387 317.467 138.899 326.402 119.41C321.603 122.707 315.284 143.908 329.568 155.387Z" fill="#938FD8"/>
        <path d="M303.175 81.7348C303.175 81.7348 304.729 99.2513 305.43 106.508C304.493 113.792 279.483 117.804 280.277 109.098C282.781 102.011 281.804 97.4616 281.804 97.4616L303.175 81.7414V81.7348Z" fill="#FCAC88"/>
        <path d="M303.412 90.2177C303.32 85.465 303.176 81.7283 303.176 81.7283L281.805 97.4485C281.805 97.4485 282.382 100.149 281.503 104.62C292.51 110.986 300.967 100.995 303.412 90.2112V90.2177Z" fill="#F4906E"/>
        <path d="M273.721 60.6981C273.721 60.6981 274.173 70.302 274.534 71.3771C274.894 72.4522 278.356 58.6462 278.356 58.6462L273.721 60.6981Z" fill="#9B450B"/>
        <path d="M286.118 47.6785C286.118 47.6785 278.14 55.6632 275.872 61.8713C273.603 68.0729 272.155 80.9153 272.371 85.183C272.587 89.4506 277.038 95.39 279.871 97.0944C282.703 98.7923 294.109 98.517 300.927 88.2379C306.748 88.7623 309.508 82.6197 310.347 78.6864C311.186 74.7465 304.67 74.5892 303.313 77.0606C305.096 71.1475 305.693 62.6908 299.609 59.0918C293.519 55.4928 286.118 47.6785 286.118 47.6785Z" fill="#FCAC88"/>
        <path d="M297.813 79.9778C297.105 81.4594 295.329 82.0887 293.847 81.3807C292.365 80.6727 291.736 78.8961 292.444 77.408C293.152 75.9265 294.929 75.2971 296.417 76.0051C297.898 76.7131 298.528 78.4897 297.82 79.9778H297.813Z" fill="#F79D79"/>
        <path d="M275.151 74.3595C274.522 74.058 273.833 74.0121 273.204 74.1563C272.935 76.1099 272.726 78.011 272.581 79.7285C274.063 80.4365 275.839 79.8072 276.554 78.3257C277.262 76.8441 276.633 75.0675 275.151 74.353V74.3595Z" fill="#F79D79"/>
        <path d="M282.741 91.0631C282.741 91.0631 286.373 93.41 289.52 90.4403C287.632 93.9213 285.226 95.6979 282.741 91.0631Z" fill="#F79D79"/>
        <path d="M304.002 85.8187C304.002 85.8187 305.601 84.9796 307.273 82.5344C308.944 80.0826 309.03 78.4437 308.354 77.9651C307.686 77.4866 304.369 78.9026 303.969 79.9842C303.569 81.0659 304.887 81.3609 304.415 81.9575C303.943 82.554 302.972 81.9837 302.638 82.7572C302.31 83.5374 302.808 84.5994 303.484 84.2126C304.159 83.8193 305.66 82.9474 305.542 81.5838C305.424 80.2268 306.735 79.4467 307.299 79.4401C307.863 79.4401 306.683 83.0588 304.002 85.8187Z" fill="#EF8965"/>
        <path d="M303.733 75.5332C305.155 69.7708 305.201 62.3893 299.616 59.0853C297.144 57.6234 294.463 55.4666 292.136 53.4212C287.986 53.1721 281.549 53.6572 277.701 58.1937C276.947 59.4393 276.311 60.6848 275.878 61.8648C275.76 62.186 275.642 62.54 275.531 62.9006C276.953 61.5698 281.968 57.5512 289.048 59.354C297.472 61.4977 299.662 64.4477 299.603 65.8178C299.544 67.1879 298.449 68.7613 299.813 70.8656C301.183 72.97 298.062 83.8457 298.062 83.8457C298.062 83.8457 301.248 79.6435 303.726 75.5266L303.733 75.5332Z" fill="#F79D79"/>
        <path d="M316.142 65.4046C317.204 64.4606 318.837 62.3955 317.998 59.0325C316.798 54.2011 310.4 50.5169 309.01 51.6116C308.61 45.9083 302.644 46.1902 302.172 46.341C300.075 40.454 293.021 41.7193 293.06 42.6174C289.645 36.855 287.193 44.2169 287.154 44.8266C282.086 41.28 279.097 48.5436 279.097 48.5436C272.351 42.2109 271.519 49.1074 273.092 49.4876C267.913 51.1527 271.859 54.7911 272.246 54.8501C271.027 55.9645 271.191 57.3281 271.873 58.3967C271.165 58.8228 270.463 59.3669 269.847 60.0683C267.198 63.097 274.298 64.7162 279.916 59.3997C278.73 61.2549 282.204 61.1172 285.554 59.4914C286.898 58.8359 288.071 58.495 289.002 58.318C294.194 59.6029 299.885 62.8479 301.7 64.9391C300.665 70.0393 303.064 69.8558 301.491 73.9661C299.917 78.083 298.069 83.8585 298.069 83.8585L300.724 84.0224C300.724 84.0224 301.222 81.0724 303.215 78.1224C306.001 74.0514 310.046 76.7391 310.046 76.7391C310.046 76.7391 318.653 67.1287 316.142 65.4177V65.4046Z" fill="#9B450B"/>
        <path d="M316.143 65.405C317.205 64.461 318.838 62.396 317.999 59.033C316.799 54.2016 310.401 50.5173 309.011 51.6121C308.611 45.9088 302.645 46.1907 302.173 46.3414C300.076 40.4545 293.022 41.7198 293.061 42.6179C289.646 36.8555 284.565 41.1888 284.526 41.7984C284.526 41.7984 279.688 46.1251 284.113 46.7217C282.657 50.5108 289.646 52.6348 291.245 51.8284C289.633 55.0603 295.847 55.8142 296.778 54.9751C295.402 58.5282 302.167 59.6165 303.753 58.9806C302.383 62.1469 307.156 63.5236 308.231 62.9139C305.766 65.9754 307.706 69.4039 308.598 69.4695C306.474 70.5971 305.995 73.8748 305.923 76.0251C308.067 75.422 310.04 76.7331 310.04 76.7331C310.04 76.7331 318.648 67.1226 316.137 65.4116L316.143 65.405Z" fill="#AA4F11"/>
        <path d="M279.096 48.5305C279.096 48.5305 305.555 57.1905 313.579 72.3338C322.475 60.5862 321.111 55.2107 319.826 46.2689C318.548 37.3271 322.848 35.3473 319.826 32.3055C316.804 29.2637 307.017 28.8048 303.404 32.3055C299.792 35.8062 282.663 34.1607 279.09 48.5305H279.096Z" fill="#938FD8"/>
        <path d="M285.554 44.2367C285.554 44.2367 288.071 38.7825 294.155 38.1335C300.238 37.4845 307.508 29.7751 313.395 30.5028C309.18 31.591 305.47 34.7443 301.399 37.3468C297.328 39.9494 289.33 41.6932 287.298 46.4918C285.187 46.564 285.554 44.2367 285.554 44.2367Z" fill="#7A7ACE"/>
        <path d="M314.661 64.7228C314.661 64.7228 318.935 60.5075 317.493 54.5616C316.051 48.6157 321.229 37.7597 318.548 32.4628C318.948 36.796 316.85 42.7681 315.782 47.475C314.707 52.1885 315.775 60.3043 311.947 63.8377C312.589 65.8438 314.661 64.7162 314.661 64.7162V64.7228Z" fill="#7A7ACE"/>
        <path d="M293.756 48.5959C293.756 48.5959 296.24 44.3807 302.127 41.47C308.014 38.5594 309.83 31.7284 316.444 31.2958C313.389 32.384 310.19 36.5271 307.719 39.6541C305.247 42.7811 298.122 48.5697 296.961 51.0936C295.801 53.6109 293.749 48.5959 293.749 48.5959H293.756Z" fill="#7A7ACE"/>
        <path d="M303.943 55.5055C303.943 55.5055 306.355 51.5984 309.469 47.2914C312.583 42.9843 317.172 31.3023 317.172 31.3023C317.172 31.3023 317.828 34.7178 314.117 43.4039C311.233 50.1561 307.647 57.7803 306.775 58.6456C305.903 59.5044 303.943 55.5055 303.943 55.5055Z" fill="#7A7ACE"/>
        <path d="M282.25 42.1388C280.861 43.8235 279.753 45.9082 279.097 48.5304C279.097 48.5304 305.555 57.1904 313.579 72.3337C315.218 70.1638 316.51 68.2168 317.519 66.4206C309.495 51.3428 282.421 42.1912 282.25 42.1322V42.1388Z" fill="#B4B4EF"/>
        <path d="M277.248 70.1507C277.038 70.0524 276.934 69.8098 277.012 69.5804C277.379 68.5446 278.579 66.709 280.506 67.1941C282.362 67.6661 282.984 69.2919 283.05 70.0851C283.07 70.3408 282.886 70.5637 282.63 70.5834C282.375 70.603 282.152 70.4129 282.132 70.1638C282.132 70.0983 281.955 68.5118 280.277 68.0923C278.677 67.6858 277.904 69.7967 277.871 69.8885C277.786 70.131 277.524 70.2556 277.281 70.1704C277.268 70.1704 277.248 70.1573 277.235 70.1507H277.248Z" fill="#44271F"/>
        <path d="M289.652 71.0165C289.456 70.9247 289.351 70.6953 289.41 70.4789C289.639 69.6595 290.636 68.2304 292.805 68.6565C294.936 69.0761 295.48 71.3443 295.467 72.485C295.467 72.7406 295.257 72.9438 295.002 72.9438C294.746 72.9438 294.543 72.7341 294.543 72.4784C294.543 72.3735 294.53 69.9414 292.622 69.5612C290.793 69.2006 290.334 70.5773 290.288 70.7346C290.216 70.9772 289.96 71.1214 289.718 71.0493C289.692 71.0427 289.665 71.0296 289.646 71.0231L289.652 71.0165Z" fill="#44271F"/>
        <path d="M290.649 66.4932C290.649 66.4932 294.398 64.7691 297.65 68.9909C298.299 64.7494 290.17 61.4257 290.649 66.4932Z" fill="#9B450B"/>
        <path d="M282.257 78.6536C281.398 78.2471 280.677 77.703 280.296 77.2114C279.733 76.464 279.556 75.6577 279.811 74.93C280.106 74.0843 280.945 73.4485 282.184 73.1272C284.19 72.6093 283.928 70.1445 283.915 70.0396C283.895 69.8691 284.013 69.7183 284.184 69.6987C284.354 69.679 284.505 69.797 284.525 69.9675C284.656 71.036 284.361 73.1993 282.335 73.7238C281.306 73.9926 280.611 74.4908 280.388 75.1332C280.205 75.6577 280.342 76.2674 280.782 76.8442C281.378 77.6309 283.148 78.5946 284.61 78.6995C285.344 78.7519 285.908 78.5946 286.282 78.2275C286.4 78.1095 286.596 78.1095 286.714 78.2275C286.832 78.3455 286.832 78.5421 286.714 78.6601C286.216 79.1518 285.475 79.3747 284.564 79.3091C283.791 79.2501 282.971 79.001 282.25 78.6536H282.257Z" fill="#D8664C"/>
        <path d="M278.29 81.866C278.29 81.866 288.688 84.4882 291.618 82.4363C291.264 87.7791 288.412 91.9681 283.528 90.1522C278.645 88.3429 277.832 84.049 278.29 81.8594V81.866Z" fill="#8E3A24"/>
        <path d="M280.428 88.2448C281.208 88.9987 282.218 89.6673 283.529 90.159C286.42 91.2341 288.596 90.1918 289.966 88.0612C285.967 85.7274 281.785 87.5302 280.428 88.2448Z" fill="#BC593F"/>
        <path d="M291.389 84.2587C291.501 83.6752 291.58 83.0656 291.619 82.4428C289.18 84.1472 281.576 82.6198 279.104 82.0626C279.321 82.8427 279.838 83.9702 281.117 84.3046C283.123 84.829 286.637 85.6419 289.587 85.006C290.354 84.8421 290.944 84.5668 291.396 84.2587H291.389Z" fill="white"/>
        <path d="M277.019 65.1687C277.019 65.1687 280.029 62.9595 283.28 64.6902C284.676 64.4869 284.06 62.1531 281.936 61.8778C279.812 61.6025 276.731 63.1037 277.026 65.1687H277.019Z" fill="#9B450B"/>
        <path d="M351.09 158.887C351.09 158.887 335.98 172.779 311.659 177.741C310.82 177.879 308.446 178.082 305.444 176.692C301.694 174.948 298.312 170.543 297.984 169.475C297.735 168.649 296.961 165.286 296.62 163.791C296.522 163.352 296.096 163.07 295.657 163.155C294.411 163.391 292.143 164.243 291.985 167.318C291.769 171.572 294.601 175.82 294.601 177.243C294.601 178.665 287.626 179.642 285.771 180.947C283.916 182.258 284.571 185.09 286.315 186.401C285.004 189.344 287.403 191.226 288.603 192.137C288.275 195.343 291.658 195.88 291.658 195.88C292.202 199.375 295.584 198.503 297.328 198.719C299.072 198.935 306.486 197.316 315.212 192.839C319.368 192.753 326.402 191.77 346.456 187.588C372.921 182.068 380.027 168.124 379.692 161.483C363.946 157.17 351.09 158.894 351.09 158.894V158.887Z" fill="#F79D79"/>
        <path d="M294.352 174.876C293.487 173.735 292.975 172.641 292.68 171.815C293.46 174.28 294.601 176.331 294.601 177.23C294.601 178.423 289.658 179.308 286.99 180.337V181.471C286.99 181.471 293.257 180.055 294.785 178.96C296.312 177.872 296.096 177.164 294.352 174.87V174.876Z" fill="#ED8662"/>
        <path d="M346.455 161.791C346.455 161.791 360.425 155.197 373.071 161.791C367.84 153.269 355.895 154.18 346.455 161.791Z" fill="#ED8662"/>
        <path d="M296.816 163.693C296.816 163.693 294.568 164.02 294.404 164.781C294.24 165.541 294.502 167.79 295.132 168.15C295.761 168.511 296.954 168.557 297.564 168.268C297.282 166.098 296.816 163.686 296.816 163.686V163.693Z" fill="#FFBFA6"/>
        <path d="M294.28 197.598C292.208 195.828 293.952 194.517 292.208 193.481C290.465 192.445 291.664 190.813 290.681 190.098C287.685 187.915 289.92 186.283 288.826 184.703C286.984 182.946 287.842 180.848 288.432 179.852C287.311 180.199 286.315 180.553 285.771 180.94C283.916 182.251 284.571 185.083 286.315 186.394C285.004 189.338 287.403 191.219 288.603 192.131C288.275 195.336 291.658 195.874 291.658 195.874C292.097 198.706 294.404 198.673 296.194 198.673C295.558 198.463 294.89 198.129 294.273 197.604L294.28 197.598Z" fill="#ED8662"/>
        <path d="M265.068 135.137C265.068 135.137 264.832 110.284 272.351 103.689C262.052 105.591 263.042 128.489 265.068 135.137Z" fill="#938FD8"/>
    </g>
</svg>
