<svg width="24" height="22" viewBox="0 0 24 22" fill="none" xmlns="http://www.w3.org/2000/svg">
    <path d="M23.2711 8.41897C22.3683 6.9407 21.2296 5.62023 19.9001 4.50997L22.7001 1.70997C22.8822 1.52137 22.983 1.26877 22.9807 1.00657C22.9784 0.744373 22.8733 0.49356 22.6879 0.308152C22.5025 0.122744 22.2516 0.017575 21.9895 0.0152966C21.7273 0.0130182 21.4747 0.113813 21.2861 0.295971L18.2411 3.34497C16.3534 2.22379 14.1955 1.63943 12.0001 1.65497C5.80905 1.65497 2.28105 5.89297 0.729051 8.41897C0.249579 9.19448 -0.00439453 10.0882 -0.00439453 11C-0.00439453 11.9117 0.249579 12.8055 0.729051 13.581C1.63181 15.0592 2.77054 16.3797 4.10005 17.49L1.30005 20.29C1.20454 20.3822 1.12836 20.4926 1.07595 20.6146C1.02354 20.7366 0.995955 20.8678 0.994801 21.0006C0.993647 21.1334 1.01895 21.265 1.06923 21.3879C1.11951 21.5108 1.19376 21.6225 1.28766 21.7164C1.38155 21.8103 1.4932 21.8845 1.6161 21.9348C1.73899 21.9851 1.87067 22.0104 2.00345 22.0092C2.13623 22.0081 2.26745 21.9805 2.38946 21.9281C2.51146 21.8757 2.6218 21.7995 2.71405 21.704L5.76605 18.652C7.65132 19.773 9.80672 20.3583 12.0001 20.345C18.1911 20.345 21.7191 16.107 23.2711 13.581C23.7505 12.8055 24.0045 11.9117 24.0045 11C24.0045 10.0882 23.7505 9.19448 23.2711 8.41897ZM2.43305 12.534C2.14819 12.073 1.9973 11.5418 1.9973 11C1.9973 10.4581 2.14819 9.92693 2.43305 9.46597C3.76705 7.29997 6.78205 3.65497 12.0001 3.65497C13.6603 3.64567 15.2973 4.04581 16.7661 4.81997L14.7531 6.83297C13.793 6.19557 12.642 5.90997 11.4953 6.02462C10.3486 6.13927 9.27692 6.64711 8.46205 7.46197C7.64719 8.27684 7.13935 9.34853 7.0247 10.4952C6.91005 11.6419 7.19565 12.7929 7.83305 13.753L5.52305 16.063C4.29815 15.0727 3.25289 13.8789 2.43305 12.534ZM15.0001 11C15.0001 11.7956 14.684 12.5587 14.1214 13.1213C13.5588 13.6839 12.7957 14 12.0001 14C11.5546 13.9982 11.1152 13.8957 10.7151 13.7L14.7001 9.71497C14.8958 10.1152 14.9983 10.5545 15.0001 11ZM9.00005 11C9.00005 10.2043 9.31612 9.44126 9.87873 8.87865C10.4413 8.31604 11.2044 7.99997 12.0001 7.99997C12.4455 8.0017 12.8849 8.10426 13.2851 8.29997L9.30005 12.285C9.10434 11.8848 9.00178 11.4455 9.00005 11ZM21.5671 12.534C20.2331 14.7 17.2181 18.345 12.0001 18.345C10.3398 18.3543 8.70282 17.9541 7.23405 17.18L9.24705 15.167C10.2071 15.8044 11.3581 16.09 12.5048 15.9753C13.6515 15.8607 14.7232 15.3528 15.538 14.538C16.3529 13.7231 16.8608 12.6514 16.9754 11.5047C17.0901 10.3581 16.8044 9.20704 16.1671 8.24697L18.4771 5.93697C19.7019 6.92725 20.7472 8.12102 21.5671 9.46597C21.8519 9.92693 22.0028 10.4581 22.0028 11C22.0028 11.5418 21.8519 12.073 21.5671 12.534Z" fill="white"/>
</svg>
